<?xml version="1.0" standalone="no"?>
<!DOCTYPE svg PUBLIC "-//W3C//DTD SVG 1.1//EN" "http://www.w3.org/Graphics/SVG/1.1/DTD/svg11.dtd" >
<svg xmlns="http://www.w3.org/2000/svg" xmlns:xlink="http://www.w3.org/1999/xlink" version="1.1">
<metadata>
Created by FontForge 20170924 at Wed Jun 16 15:14:56 2021
 By www-data
Copyright \(c\) 2021 by Konstantine Studio. All rights reserved.
</metadata>
<defs>
<font id="Neonsign-Regular" horiz-adv-x="742" >
  <font-face 
    font-family="Neonsign"
    font-weight="400"
    font-stretch="normal"
    units-per-em="1000"
    panose-1="0 0 5 0 0 0 0 0 0 0"
    ascent="800"
    descent="-200"
    x-height="500"
    cap-height="857"
    bbox="-327.391 -410 1295.12 1040"
    underline-thickness="50"
    underline-position="-100"
    unicode-range="U+0020-FB02"
  />
<missing-glyph horiz-adv-x="500" 
d="M93 800h317v-1000h-317v1000zM333 700v33h-165v-33h65v-37h-66v-33h166v33h-66v37h66zM267 534v70h-100v-104h166v34h-66zM200 570h33v-36h-33v36zM333 440v33h-166v-33h66v-37h-66v-33h100v70h66zM333 313v100h-33v-66h-133v-34h166zM333 178v113h-100v-56h34v23h33v-47
h-100v80h-33v-113h166zM333 5v113h-166v-113h166zM200 85h100v-47h-100v47zM333 -51v33h-166v-33h70l-70 -47v-33h166v33h-102l70 47h32z" />
    <glyph glyph-name="fi" unicode="fi" horiz-adv-x="625" 
d="M618 725c11 20 40 7 30 -16c-16 -33 -32 -66 -46 -99c-14 -27 -47 -15 -31 14c14 33 30 67 47 101zM537 147c14 25 44 0 25 -25c-49 -71 -98 -118 -135 -118c-95 0 -42 236 91 501c11 20 40 7 30 -16c-107 -212 -168 -451 -121 -451c23 0 66 45 110 109zM332 500
c29 0 27 -38 0 -38c-208 0 -486 -726 -325 -726c102 0 146 329 82 329c-28 0 -26 37 0 37c3 0 7 0 10 -1c70 2 138 26 194 66c25 21 39 -16 17 -30c-51 -35 -111 -59 -173 -67c53 -95 -7 -372 -133 -372c-235 0 81 802 328 802z" />
    <glyph glyph-name="fl" unicode="fl" horiz-adv-x="607" 
d="M578 686c11 20 40 7 30 -16c-139 -242 -268 -632 -211 -632c33 0 66 45 110 109c14 25 44 0 25 -25c-49 -71 -88 -118 -135 -118c-127 0 16 387 181 682zM332 500c29 0 27 -38 0 -38c-208 0 -486 -726 -325 -726c102 0 146 329 82 329c-28 0 -26 37 0 37c3 0 7 0 10 -1
c70 2 138 26 194 66c25 21 39 -16 17 -30c-51 -35 -111 -59 -173 -67c53 -95 -7 -372 -133 -372c-235 0 81 802 328 802z" />
    <glyph glyph-name=".notdef" horiz-adv-x="500" 
d="M93 800h317v-1000h-317v1000zM333 700v33h-165v-33h65v-37h-66v-33h166v33h-66v37h66zM267 534v70h-100v-104h166v34h-66zM200 570h33v-36h-33v36zM333 440v33h-166v-33h66v-37h-66v-33h100v70h66zM333 313v100h-33v-66h-133v-34h166zM333 178v113h-100v-56h34v23h33v-47
h-100v80h-33v-113h166zM333 5v113h-166v-113h166zM200 85h100v-47h-100v47zM333 -51v33h-166v-33h70l-70 -47v-33h166v33h-102l70 47h32z" />
    <glyph glyph-name="space" unicode=" " horiz-adv-x="300" 
 />
    <glyph glyph-name="A" unicode="A" 
d="M501 -119c-11 -28 -46 -14 -32 13c43 93 378 942 239 942c-120 0 -421 -406 -663 -869c-14 -27 -45 -9 -32 15c251 479 552 886 694 886c217 0 -161 -894 -206 -987zM318 313c-21 -2 -15 31 3 33c59 5 199 3 252 -7c23 -4 18 -36 -4 -32c-54 10 -190 13 -251 6z" />
    <glyph glyph-name="Aacute" unicode="&#xc1;" 
d="M678 958c37 34 50 44 60 52c21 16 47 -8 24 -26c-11 -9 -25 -21 -62 -53c-18 -16 -42 9 -22 27zM501 -119c-11 -28 -46 -14 -32 13c43 93 378 942 239 942c-120 0 -421 -406 -663 -869c-14 -27 -45 -9 -32 15c251 479 552 886 694 886c217 0 -161 -894 -206 -987z
M318 313c-21 -2 -15 31 3 33c59 5 199 3 252 -7c23 -4 18 -36 -4 -32c-54 10 -190 13 -251 6z" />
    <glyph glyph-name="Acircumflex" unicode="&#xc2;" 
d="M796 958c20 -18 -4 -43 -22 -27l-52 45c-10 -9 -25 -22 -52 -45c-18 -16 -42 9 -22 27c36 33 49 43 59 51c3 4 9 6 15 6s12 -2 15 -6c10 -8 23 -18 59 -51zM707 868c217 0 -161 -894 -206 -987c-11 -28 -46 -14 -32 13c43 93 378 942 239 942c-120 0 -421 -406 -663 -869
c-14 -27 -45 -9 -32 15c251 479 552 886 694 886zM573 339c23 -4 18 -36 -4 -32c-54 10 -190 13 -251 6c-21 -2 -15 31 3 33c59 5 199 3 252 -7z" />
    <glyph glyph-name="Adieresis" unicode="&#xc4;" 
d="M692 925c-12 0 -22 10 -22 22s10 22 22 22s22 -10 22 -22s-10 -22 -22 -22zM752 925c-12 0 -22 10 -22 22s10 22 22 22s22 -10 22 -22s-10 -22 -22 -22zM501 -119c-11 -28 -46 -14 -32 13c43 93 378 942 239 942c-120 0 -421 -406 -663 -869c-14 -27 -45 -9 -32 15
c251 479 552 886 694 886c217 0 -161 -894 -206 -987zM318 313c-21 -2 -15 31 3 33c59 5 199 3 252 -7c23 -4 18 -36 -4 -32c-54 10 -190 13 -251 6z" />
    <glyph glyph-name="Agrave" unicode="&#xc0;" 
d="M773 958c20 -18 -4 -43 -22 -27c-37 32 -51 44 -62 53c-23 18 3 42 24 26c10 -8 23 -18 60 -52zM501 -119c-11 -28 -46 -14 -32 13c43 93 378 942 239 942c-120 0 -421 -406 -663 -869c-14 -27 -45 -9 -32 15c251 479 552 886 694 886c217 0 -161 -894 -206 -987z
M318 313c-21 -2 -15 31 3 33c59 5 199 3 252 -7c23 -4 18 -36 -4 -32c-54 10 -190 13 -251 6z" />
    <glyph glyph-name="Aring" unicode="&#xc5;" 
d="M757 974c0 16 28 17 29 0c0 -33 -29 -46 -65 -46c-38 0 -69 24 -69 56s31 56 69 56c22 0 42 -9 54 -22c11 -15 -11 -34 -23 -18c-6 6 -18 10 -31 10c-23 0 -40 -12 -40 -26s17 -26 40 -26c21 0 33 4 36 16zM501 -119c-11 -28 -46 -14 -32 13c43 93 378 942 239 942
c-120 0 -421 -406 -663 -869c-14 -27 -45 -9 -32 15c251 479 552 886 694 886c217 0 -161 -894 -206 -987zM318 313c-21 -2 -15 31 3 33c59 5 199 3 252 -7c23 -4 18 -36 -4 -32c-54 10 -190 13 -251 6z" />
    <glyph glyph-name="Atilde" unicode="&#xc3;" 
d="M772 978c21 17 38 -12 18 -26c-49 -42 -80 21 -111 -4c-22 -17 -36 10 -20 24c50 43 82 -19 113 6zM501 -119c-11 -28 -46 -14 -32 13c43 93 378 942 239 942c-120 0 -421 -406 -663 -869c-14 -27 -45 -9 -32 15c251 479 552 886 694 886c217 0 -161 -894 -206 -987z
M318 313c-21 -2 -15 31 3 33c59 5 199 3 252 -7c23 -4 18 -36 -4 -32c-54 10 -190 13 -251 6z" />
    <glyph glyph-name="AE" unicode="&#xc6;" horiz-adv-x="1054" 
d="M827 836c-30 -8 -39 33 -4 34c111 3 255 -7 405 -37c27 0 22 -32 0 -32c-150 29 -292 39 -401 35zM501 -119c-11 -28 -46 -14 -32 13c43 93 378 942 239 942c-120 0 -421 -406 -663 -869c-14 -27 -45 -9 -32 15c251 479 552 886 694 886c217 0 -161 -894 -206 -987z
M757 373c-21 -2 -15 31 3 33c59 5 199 3 252 -7c23 -4 18 -36 -4 -32c-53 10 -189 13 -251 6zM318 313c-21 -2 -15 31 3 33c59 5 199 3 252 -7c23 -4 18 -36 -4 -32c-54 10 -190 13 -251 6zM568 -123c-21 -2 -15 31 3 33c59 5 289 3 342 -7c23 -4 18 -36 -4 -32
c-53 10 -279 13 -341 6z" />
    <glyph glyph-name="B" unicode="B" horiz-adv-x="762" 
d="M467 865c409 0 442 -459 65 -533c284 -115 111 -573 -378 -438c-22 6 -13 42 10 33c492 -136 629 370 255 395c-4 1 -8 3 -10 5h-1v1v0h-1v0v0v0c0 1 0 1 -1 1v0v1v0c-4 5 -4 12 0 17c3 6 10 11 19 9c441 1 441 478 42 478c-457 0 -521 -561 -285 -561c28 0 23 -34 0 -34
c-293 0 -220 626 285 626zM517 735l-314 -746c-9 -22 -46 -14 -34 14l314 746c10 24 50 17 34 -14z" />
    <glyph glyph-name="C" unicode="C" horiz-adv-x="558" 
d="M347 -97c27 0 24 -34 0 -34c-588 0 -323 996 164 996c227 0 232 -319 -15 -434c-31 -18 -50 15 -16 30c215 98 220 370 31 370c-437 0 -686 -928 -164 -928z" />
    <glyph glyph-name="Ccedilla" unicode="&#xc7;" horiz-adv-x="558" 
d="M511 865c227 0 232 -319 -15 -434c-31 -18 -50 15 -16 30c215 98 220 370 31 370c-437 0 -686 -928 -164 -928c27 0 24 -34 0 -34c-588 0 -323 996 164 996zM430 -104l-20 -53c82 -20 56 -146 -43 -146c-53 0 -98 35 -108 85c-3 22 28 31 34 6c6 -33 37 -57 74 -57
c66 0 80 80 20 81c-11 -2 -22 8 -15 27l25 67c8 29 43 18 33 -10z" />
    <glyph glyph-name="D" unicode="D" horiz-adv-x="783" 
d="M145 -131c-27 0 -26 34 0 34c591 0 873 931 325 931c-462 0 -526 -501 -285 -561c28 -7 19 -36 -4 -31c-293 60 -216 623 289 623c597 0 316 -996 -325 -996zM161 -30l325 779c10 24 50 17 34 -14l-325 -779c-9 -22 -46 -14 -34 14z" />
    <glyph glyph-name="Eth" unicode="&#xd0;" horiz-adv-x="783" 
d="M145 -131c-27 0 -26 34 0 34c591 0 873 931 325 931c-462 0 -526 -501 -285 -561c28 -7 19 -36 -4 -31c-293 60 -216 623 289 623c597 0 316 -996 -325 -996zM161 -30l325 779c10 24 50 17 34 -14l-325 -779c-9 -22 -46 -14 -34 14zM339 544c23 0 23 -33 -1 -33
c-58 0 -112 -4 -151 -8c-32 -4 -31 31 0 34c39 4 92 7 152 7zM478 508c-24 -1 -22 35 1 32c45 -2 89 -7 127 -14c27 -5 22 -36 0 -32c-39 7 -83 12 -128 14z" />
    <glyph glyph-name="E" unicode="E" horiz-adv-x="802" 
d="M976 833c27 0 22 -32 0 -32c-1059 204 -1038 -524 -798 -528c28 0 23 -34 0 -34c-293 0 -303 814 798 594zM220 -103l359 852c10 24 50 17 34 -14l-359 -852c-9 -22 -46 -15 -34 14zM515 373c-21 -2 -15 31 3 33c59 5 199 3 252 -7c23 -4 18 -36 -4 -32
c-53 10 -189 13 -251 6zM316 -123c-21 -2 -15 31 3 33c59 5 289 3 342 -7c23 -4 18 -36 -4 -32c-53 10 -279 13 -341 6z" />
    <glyph glyph-name="Eacute" unicode="&#xc9;" horiz-adv-x="802" 
d="M768 958c37 34 50 44 60 52c21 16 47 -8 24 -26c-11 -9 -25 -21 -62 -53c-18 -16 -42 9 -22 27zM976 833c27 0 22 -32 0 -32c-1059 204 -1038 -524 -798 -528c28 0 23 -34 0 -34c-293 0 -303 814 798 594zM220 -103l359 852c10 24 50 17 34 -14l-359 -852
c-9 -22 -46 -15 -34 14zM515 373c-21 -2 -15 31 3 33c59 5 199 3 252 -7c23 -4 18 -36 -4 -32c-53 10 -189 13 -251 6zM316 -123c-21 -2 -15 31 3 33c59 5 289 3 342 -7c23 -4 18 -36 -4 -32c-53 10 -279 13 -341 6z" />
    <glyph glyph-name="Ecircumflex" unicode="&#xca;" horiz-adv-x="802" 
d="M760 931c-18 -16 -42 9 -22 27c36 33 49 43 59 51c3 4 9 6 15 6s12 -2 15 -6c10 -8 23 -18 59 -51c20 -18 -4 -43 -22 -27l-52 45c-10 -9 -25 -22 -52 -45zM976 833c27 0 22 -32 0 -32c-1059 204 -1038 -524 -798 -528c28 0 23 -34 0 -34c-293 0 -303 814 798 594z
M220 -103l359 852c10 24 50 17 34 -14l-359 -852c-9 -22 -46 -15 -34 14zM770 399c23 -4 18 -36 -4 -32c-53 10 -189 13 -251 6c-21 -2 -15 31 3 33c59 5 199 3 252 -7zM661 -97c23 -4 18 -36 -4 -32c-53 10 -279 13 -341 6c-21 -2 -15 31 3 33c59 5 289 3 342 -7z" />
    <glyph glyph-name="Edieresis" unicode="&#xcb;" horiz-adv-x="802" 
d="M782 925c-12 0 -22 10 -22 22s10 22 22 22s22 -10 22 -22s-10 -22 -22 -22zM842 925c-12 0 -22 10 -22 22s10 22 22 22s22 -10 22 -22s-10 -22 -22 -22zM976 833c27 0 22 -32 0 -32c-1059 204 -1038 -524 -798 -528c28 0 23 -34 0 -34c-293 0 -303 814 798 594zM220 -103
l359 852c10 24 50 17 34 -14l-359 -852c-9 -22 -46 -15 -34 14zM515 373c-21 -2 -15 31 3 33c59 5 199 3 252 -7c23 -4 18 -36 -4 -32c-53 10 -189 13 -251 6zM316 -123c-21 -2 -15 31 3 33c59 5 289 3 342 -7c23 -4 18 -36 -4 -32c-53 10 -279 13 -341 6z" />
    <glyph glyph-name="Egrave" unicode="&#xc8;" horiz-adv-x="802" 
d="M863 958c20 -18 -4 -43 -22 -27c-37 32 -51 44 -62 53c-23 18 3 42 24 26c10 -8 23 -18 60 -52zM976 833c27 0 22 -32 0 -32c-1059 204 -1038 -524 -798 -528c28 0 23 -34 0 -34c-293 0 -303 814 798 594zM220 -103l359 852c10 24 50 17 34 -14l-359 -852
c-9 -22 -46 -15 -34 14zM515 373c-21 -2 -15 31 3 33c59 5 199 3 252 -7c23 -4 18 -36 -4 -32c-53 10 -189 13 -251 6zM316 -123c-21 -2 -15 31 3 33c59 5 289 3 342 -7c23 -4 18 -36 -4 -32c-53 10 -279 13 -341 6z" />
    <glyph glyph-name="F" unicode="F" horiz-adv-x="776" 
d="M976 833c27 0 22 -32 0 -32c-1059 204 -1038 -524 -798 -528c28 0 23 -34 0 -34c-293 0 -303 814 798 594zM220 -104l359 853c10 24 50 17 34 -14l-359 -853c-9 -22 -46 -15 -34 14zM491 316c-21 -2 -15 31 3 33c59 5 199 3 252 -7c23 -4 18 -36 -4 -32
c-54 10 -190 13 -251 6z" />
    <glyph glyph-name="G" unicode="G" horiz-adv-x="684" 
d="M684 582c-13 -26 -47 -15 -34 10c46 89 47 237 -125 237c-477 0 -650 -907 -270 -926c115 -6 250 123 326 368c6 21 41 16 32 -12c-10 -32 -109 -314 -96 -394c3 -20 -31 -29 -37 -3c-7 31 4 93 25 168c-75 -110 -166 -165 -252 -161c-435 21 -250 994 272 994
c195 0 214 -169 159 -281zM235 252c-21 -2 -15 33 3 35c59 5 229 3 282 -7c23 -4 18 -38 -4 -34c-54 10 -220 13 -281 6z" />
    <glyph glyph-name="H" unicode="H" horiz-adv-x="718" 
d="M516 -108c6 -19 -28 -42 -37 -6c-27 131 312 818 375 963c11 24 46 10 35 -14c-63 -145 -398 -822 -373 -943zM12 -35l342 805c10 24 50 17 34 -14l-342 -805c-9 -22 -46 -15 -34 14zM262 351c-21 -2 -15 33 3 35c59 5 269 3 322 -7c23 -4 18 -38 -4 -34
c-54 10 -260 13 -321 6z" />
    <glyph glyph-name="I" unicode="I" horiz-adv-x="504" 
d="M387 823c-32 -4 -31 31 0 34c96 10 288 13 419 -11c27 -5 22 -36 0 -32c-132 24 -321 20 -419 9zM222 -13l338 791c10 24 50 17 34 -14l-338 -791c-9 -22 -46 -15 -34 14zM347 -95c32 -4 25 -38 -4 -34c-113 15 -226 13 -309 4c-32 -4 -31 33 0 36c82 9 199 9 313 -6z
" />
    <glyph glyph-name="Iacute" unicode="&#xcd;" horiz-adv-x="504" 
d="M589 958c37 34 50 44 60 52c21 16 47 -8 24 -26c-11 -9 -25 -21 -62 -53c-18 -16 -42 9 -22 27zM387 823c-32 -4 -31 31 0 34c96 10 288 13 419 -11c27 -5 22 -36 0 -32c-132 24 -321 20 -419 9zM222 -13l338 791c10 24 50 17 34 -14l-338 -791c-9 -22 -46 -15 -34 14z
M347 -95c32 -4 25 -38 -4 -34c-113 15 -226 13 -309 4c-32 -4 -31 33 0 36c82 9 199 9 313 -6z" />
    <glyph glyph-name="Icircumflex" unicode="&#xce;" horiz-adv-x="504" 
d="M581 931c-18 -16 -42 9 -22 27c36 33 49 43 59 51c3 4 9 6 15 6s12 -2 15 -6c10 -8 23 -18 59 -51c20 -18 -4 -43 -22 -27l-52 45c-10 -9 -25 -22 -52 -45zM806 846c27 -5 22 -36 0 -32c-132 24 -321 20 -419 9c-32 -4 -31 31 0 34c96 10 288 13 419 -11zM222 -13
l338 791c10 24 50 17 34 -14l-338 -791c-9 -22 -46 -15 -34 14zM347 -95c32 -4 25 -38 -4 -34c-113 15 -226 13 -309 4c-32 -4 -31 33 0 36c82 9 199 9 313 -6z" />
    <glyph glyph-name="Idieresis" unicode="&#xcf;" horiz-adv-x="504" 
d="M603 925c-12 0 -22 10 -22 22s10 22 22 22s22 -10 22 -22s-10 -22 -22 -22zM663 925c-12 0 -22 10 -22 22s10 22 22 22s22 -10 22 -22s-10 -22 -22 -22zM387 823c-32 -4 -31 31 0 34c96 10 288 13 419 -11c27 -5 22 -36 0 -32c-132 24 -321 20 -419 9zM222 -13l338 791
c10 24 50 17 34 -14l-338 -791c-9 -22 -46 -15 -34 14zM347 -95c32 -4 25 -38 -4 -34c-113 15 -226 13 -309 4c-32 -4 -31 33 0 36c82 9 199 9 313 -6z" />
    <glyph glyph-name="Igrave" unicode="&#xcc;" horiz-adv-x="504" 
d="M684 958c20 -18 -4 -43 -22 -27c-37 32 -51 44 -62 53c-23 18 3 42 24 26c10 -8 23 -18 60 -52zM387 823c-32 -4 -31 31 0 34c96 10 288 13 419 -11c27 -5 22 -36 0 -32c-132 24 -321 20 -419 9zM222 -13l338 791c10 24 50 17 34 -14l-338 -791c-9 -22 -46 -15 -34 14z
M347 -95c32 -4 25 -38 -4 -34c-113 15 -226 13 -309 4c-32 -4 -31 33 0 36c82 9 199 9 313 -6z" />
    <glyph glyph-name="J" unicode="J" horiz-adv-x="614" 
d="M771 864c22 0 23 -35 -2 -34c-174 8 -325 1 -459 -23c-27 -10 -36 26 -6 34c155 27 316 30 467 23zM419 317c33 0 21 -41 -5 -34c-96 12 -288 34 -340 -3c-93 -65 43 -377 160 -377c120 0 464 798 492 864c11 23 46 16 34 -14c-28 -66 -378 -884 -526 -884
c-151 0 -300 354 -180 439c62 44 266 21 365 9z" />
    <glyph glyph-name="K" unicode="K" horiz-adv-x="589" 
d="M12 -62l383 916c10 24 50 17 34 -14l-383 -916c-9 -22 -46 -14 -34 14zM805 839c13 24 46 5 33 -16c-79 -143 -330 -442 -536 -526c17 -82 50 -284 156 -361c22 -15 7 -51 -23 -27c-119 88 -156 314 -174 390c-2 12 4 21 12 24c200 74 453 374 532 516z" />
    <glyph glyph-name="L" unicode="L" horiz-adv-x="375" 
d="M12 -69l388 922c10 24 50 17 34 -14l-388 -922c-9 -22 -46 -15 -34 14zM98 -121c-29 -2 -24 33 2 35c59 5 404 3 457 -7c23 -4 19 -38 -3 -34c-53 10 -394 10 -456 6z" />
    <glyph glyph-name="Lslash" unicode="&#x141;" horiz-adv-x="375" 
d="M12 -69l388 922c10 24 50 17 34 -14l-388 -922c-9 -22 -46 -15 -34 14zM309 372c-26 -3 -25 32 0 32c74 -1 124 -6 187 -18c27 -5 22 -36 0 -32c-63 12 -114 17 -187 18zM156 403c23 1 25 -36 1 -33c-36 -2 -54 -4 -80 -7c-32 -4 -31 31 0 34c25 3 44 5 79 6zM98 -121
c-29 -2 -24 33 2 35c59 5 404 3 457 -7c23 -4 19 -38 -3 -34c-53 10 -394 10 -456 6z" />
    <glyph glyph-name="M" unicode="M" horiz-adv-x="1007" 
d="M1059 849c-15 -158 -84 -368 -142 -555c-64 -205 -108 -352 -83 -400c9 -25 -26 -36 -36 -16c-57 110 174 609 217 940c-80 -95 -329 -596 -532 -778c-4 -3 -8 -6 -12 -6c-11 -2 -18 7 -19 16c-36 99 70 664 13 710c-67 -64 -236 -615 -424 -729c-27 -16 -45 14 -18 28
c112 69 219 312 302 501c50 112 92 208 123 231c4 4 9 6 13 6h4c59 -12 60 -126 28 -448c-17 -160 -21 -237 -18 -268c122 117 260 350 369 531c122 204 159 256 194 256c14 0 21 -10 21 -19z" />
    <glyph glyph-name="N" unicode="N" horiz-adv-x="777" 
d="M838 851c15 31 48 17 35 -14c-33 -75 -250 -683 -288 -938c2 -13 -13 -26 -29 -15c-94 78 -101 616 -60 908c-97 -101 -322 -675 -455 -797c-22 -19 -44 9 -23 26c68 62 160 249 249 429c146 297 201 390 251 391c17 0 22 -16 17 -26c-49 -293 -34 -731 20 -868
c54 278 252 831 283 904z" />
    <glyph glyph-name="Ntilde" unicode="&#xd1;" horiz-adv-x="777" 
d="M635 948c-22 -17 -36 10 -20 24c50 43 82 -19 113 6c21 17 38 -12 18 -26c-49 -42 -80 21 -111 -4zM838 851c15 31 48 17 35 -14c-33 -75 -250 -683 -288 -938c2 -13 -13 -26 -29 -15c-94 78 -101 616 -60 908c-97 -101 -322 -675 -455 -797c-22 -19 -44 9 -23 26
c68 62 160 249 249 429c146 297 201 390 251 391c17 0 22 -16 17 -26c-49 -293 -34 -731 20 -868c54 278 252 831 283 904z" />
    <glyph glyph-name="O" unicode="O" horiz-adv-x="680" 
d="M620 418c3 29 44 33 39 -4c-58 -272 -265 -574 -499 -545c-357 45 -15 1026 400 996c125 -9 166 -136 148 -294c-4 -34 -40 -26 -36 2c14 138 -20 249 -121 258c-354 31 -679 -892 -377 -929c199 -24 386 265 446 516z" />
    <glyph glyph-name="Oacute" unicode="&#xd3;" horiz-adv-x="680" 
d="M538 958c37 34 50 44 60 52c21 16 47 -8 24 -26c-11 -9 -25 -21 -62 -53c-18 -16 -42 9 -22 27zM620 418c3 29 44 33 39 -4c-58 -272 -265 -574 -499 -545c-357 45 -15 1026 400 996c125 -9 166 -136 148 -294c-4 -34 -40 -26 -36 2c14 138 -20 249 -121 258
c-354 31 -679 -892 -377 -929c199 -24 386 265 446 516z" />
    <glyph glyph-name="Ocircumflex" unicode="&#xd4;" horiz-adv-x="680" 
d="M530 931c-18 -16 -42 9 -22 27c36 33 49 43 59 51c3 4 9 6 15 6s12 -2 15 -6c10 -8 23 -18 59 -51c20 -18 -4 -43 -22 -27l-52 45c-10 -9 -25 -22 -52 -45zM560 865c125 -9 166 -136 148 -294c-4 -34 -40 -26 -36 2c14 138 -20 249 -121 258c-354 31 -679 -892 -377 -929
c199 -24 386 265 446 516c3 29 44 33 39 -4c-58 -272 -265 -574 -499 -545c-357 45 -15 1026 400 996z" />
    <glyph glyph-name="Ograve" unicode="&#xd2;" horiz-adv-x="680" 
d="M633 958c20 -18 -4 -43 -22 -27c-37 32 -51 44 -62 53c-23 18 3 42 24 26c10 -8 23 -18 60 -52zM620 418c3 29 44 33 39 -4c-58 -272 -265 -574 -499 -545c-357 45 -15 1026 400 996c125 -9 166 -136 148 -294c-4 -34 -40 -26 -36 2c14 138 -20 249 -121 258
c-354 31 -679 -892 -377 -929c199 -24 386 265 446 516z" />
    <glyph glyph-name="Oslash" unicode="&#xd8;" horiz-adv-x="680" 
d="M646 923l-13 -30c-12 -23 -44 -9 -35 13l14 31c11 24 50 17 34 -14zM620 418c3 29 44 33 39 -4c-58 -272 -265 -574 -499 -545c-357 45 -15 1026 400 996c125 -9 166 -136 148 -294c-4 -34 -40 -26 -36 2c14 138 -20 249 -121 258c-354 31 -679 -892 -377 -929
c199 -24 386 265 446 516zM575 762l-362 -812c-11 -27 -46 -16 -34 13l361 813c12 24 43 10 35 -14zM104 -205l18 41c11 25 45 13 34 -14l-18 -41c-10 -22 -47 -15 -34 14z" />
    <glyph glyph-name="Otilde" unicode="&#xd5;" horiz-adv-x="680" 
d="M632 978c21 17 38 -12 18 -26c-49 -42 -80 21 -111 -4c-22 -17 -36 10 -20 24c50 43 82 -19 113 6zM620 418c3 29 44 33 39 -4c-58 -272 -265 -574 -499 -545c-357 45 -15 1026 400 996c125 -9 166 -136 148 -294c-4 -34 -40 -26 -36 2c14 138 -20 249 -121 258
c-354 31 -679 -892 -377 -929c199 -24 386 265 446 516z" />
    <glyph glyph-name="OE" unicode="&#x152;" horiz-adv-x="999" 
d="M620 418c3 29 44 33 39 -4c-58 -272 -265 -574 -499 -545c-357 45 -15 1026 400 996c125 -9 166 -136 148 -294c-4 -34 -40 -26 -36 2c14 138 -20 249 -121 258c-354 31 -679 -892 -377 -929c199 -24 386 265 446 516zM705 831c-26 -5 -30 30 -5 33c127 14 284 7 473 -31
c27 0 22 -32 0 -32c-189 36 -343 43 -468 30zM712 373c-21 -2 -15 31 3 33c59 5 199 3 252 -7c23 -4 18 -36 -4 -32c-53 10 -189 13 -251 6zM483 -123c-21 -2 -15 31 3 33c59 5 289 3 342 -7c23 -4 18 -36 -4 -32c-53 10 -279 13 -341 6z" />
    <glyph glyph-name="P" unicode="P" horiz-adv-x="743" 
d="M396 232c-27 0 -26 34 0 34c465 0 496 568 74 568c-462 0 -526 -501 -285 -561c28 -7 19 -36 -4 -31c-293 60 -216 623 289 623c467 0 437 -633 -74 -633zM127 -106l359 855c10 24 50 17 34 -14l-359 -855c-9 -22 -46 -14 -34 14z" />
    <glyph glyph-name="Thorn" unicode="&#xde;" horiz-adv-x="519" 
d="M12 -106l359 855c10 24 50 17 34 -14l-359 -855c-9 -22 -46 -14 -34 14zM381 572c-19 10 -5 36 11 29c307 -117 230 -608 -220 -608c-27 0 -26 34 0 34c408 0 482 438 209 545z" />
    <glyph glyph-name="Q" unicode="Q" horiz-adv-x="656" 
d="M620 471c3 22 45 26 40 -4c-58 -272 -261 -561 -495 -545c-353 25 -49 973 361 943c125 -9 166 -136 148 -294c-4 -34 -45 -26 -41 2c14 138 -19 246 -120 255c-352 31 -633 -852 -332 -868c207 -11 387 260 439 511zM288 44c11 -19 -18 -38 -30 -15
c-31 48 -51 95 -59 128c-6 25 28 35 34 8c7 -32 26 -76 55 -121zM462 -126c23 -10 7 -40 -14 -30c-37 18 -71 43 -100 71c-16 21 4 41 25 21c26 -25 56 -46 89 -62z" />
    <glyph glyph-name="R" unicode="R" horiz-adv-x="771" 
d="M470 865c461 0 414 -682 -77 -701c27 -79 105 -200 219 -251c25 -10 10 -41 -15 -30c-132 61 -221 209 -243 290c-1 3 -2 5 -2 7v1v0c0 9 7 17 20 17c465 0 520 636 98 636c-462 0 -526 -501 -285 -561c28 -7 19 -36 -4 -31c-293 60 -216 623 289 623zM148 -65l338 814
c10 24 50 17 34 -14l-338 -814c-9 -22 -46 -14 -34 14z" />
    <glyph glyph-name="S" unicode="S" horiz-adv-x="618" 
d="M33 172c13 27 44 8 32 -14c-59 -128 24 -253 170 -253c148 0 273 99 273 217c0 244 -316 183 -316 478c0 128 137 268 263 268c138 0 215 -131 166 -288c-10 -30 -44 -18 -34 10c41 135 -18 242 -132 242c-107 0 -227 -123 -227 -232c0 -263 316 -205 316 -478
c0 -137 -141 -253 -309 -253c-170 0 -273 153 -202 303z" />
    <glyph glyph-name="Scaron" unicode="&#x160;" horiz-adv-x="618" 
d="M404 983c-20 18 4 43 22 27l52 -45c10 9 25 22 52 45c18 16 42 -9 22 -27c-36 -33 -49 -43 -59 -51c-3 -4 -9 -6 -15 -6s-12 2 -15 6c-10 8 -23 18 -59 51zM455 868c138 0 215 -131 166 -288c-10 -30 -44 -18 -34 10c41 135 -18 242 -132 242c-107 0 -227 -123 -227 -232
c0 -263 316 -205 316 -478c0 -137 -141 -253 -309 -253c-170 0 -273 153 -202 303c13 27 44 8 32 -14c-59 -128 24 -253 170 -253c148 0 273 99 273 217c0 244 -316 183 -316 478c0 128 137 268 263 268z" />
    <glyph glyph-name="T" unicode="T" horiz-adv-x="523" 
d="M993 833c27 0 22 -32 0 -32c-1059 204 -1061 -581 -821 -585c28 0 23 -34 0 -34c-293 0 -280 871 821 651zM238 -104l367 871c10 24 50 17 34 -14l-367 -871c-9 -22 -46 -15 -34 14z" />
    <glyph glyph-name="U" unicode="U" horiz-adv-x="578" 
d="M763 878c9 -4 14 -13 9 -25c-63 -145 -404 -842 -379 -963c6 -19 -28 -42 -37 -6c-13 64 62 264 149 469c-131 -217 -286 -422 -403 -422c-260 0 110 854 143 924c10 19 42 13 31 -14c-207 -454 -307 -877 -174 -877c193 0 520 657 611 849l24 54c2 5 6 9 10 11
c5 3 11 2 16 0z" />
    <glyph glyph-name="Uacute" unicode="&#xda;" horiz-adv-x="578" 
d="M493 931c-18 -16 -42 9 -22 27c37 34 50 44 60 52c21 16 47 -8 24 -26c-11 -9 -25 -21 -62 -53zM763 878c9 -4 14 -13 9 -25c-63 -145 -404 -842 -379 -963c6 -19 -28 -42 -37 -6c-13 64 62 264 149 469c-131 -217 -286 -422 -403 -422c-260 0 110 854 143 924
c10 19 42 13 31 -14c-207 -454 -307 -877 -174 -877c193 0 520 657 611 849l24 54c2 5 6 9 10 11c5 3 11 2 16 0z" />
    <glyph glyph-name="Ucircumflex" unicode="&#xdb;" horiz-adv-x="578" 
d="M463 931c-18 -16 -42 9 -22 27c36 33 49 43 59 51c3 4 9 6 15 6s12 -2 15 -6c10 -8 23 -18 59 -51c20 -18 -4 -43 -22 -27l-52 45c-10 -9 -25 -22 -52 -45zM763 878c9 -4 14 -13 9 -25c-63 -145 -404 -842 -379 -963c6 -19 -28 -42 -37 -6c-13 64 62 264 149 469
c-131 -217 -286 -422 -403 -422c-260 0 110 854 143 924c10 19 42 13 31 -14c-207 -454 -307 -877 -174 -877c193 0 520 657 611 849l24 54c2 5 6 9 10 11c5 3 11 2 16 0z" />
    <glyph glyph-name="Udieresis" unicode="&#xdc;" horiz-adv-x="578" 
d="M485 925c-12 0 -22 10 -22 22s10 22 22 22s22 -10 22 -22s-10 -22 -22 -22zM545 925c-12 0 -22 10 -22 22s10 22 22 22s22 -10 22 -22s-10 -22 -22 -22zM763 878c9 -4 14 -13 9 -25c-63 -145 -404 -842 -379 -963c6 -19 -28 -42 -37 -6c-13 64 62 264 149 469
c-131 -217 -286 -422 -403 -422c-260 0 110 854 143 924c10 19 42 13 31 -14c-207 -454 -307 -877 -174 -877c193 0 520 657 611 849l24 54c2 5 6 9 10 11c5 3 11 2 16 0z" />
    <glyph glyph-name="Ugrave" unicode="&#xd9;" horiz-adv-x="578" 
d="M482 984c-23 18 3 42 24 26c10 -8 23 -18 60 -52c20 -18 -4 -43 -22 -27c-37 32 -51 44 -62 53zM763 878c9 -4 14 -13 9 -25c-63 -145 -404 -842 -379 -963c6 -19 -28 -42 -37 -6c-13 64 62 264 149 469c-131 -217 -286 -422 -403 -422c-260 0 110 854 143 924
c10 19 42 13 31 -14c-207 -454 -307 -877 -174 -877c193 0 520 657 611 849l24 54c2 5 6 9 10 11c5 3 11 2 16 0z" />
    <glyph glyph-name="V" unicode="V" horiz-adv-x="570" 
d="M274 834c11 28 46 14 32 -13c-43 -93 -364 -912 -235 -912c120 0 458 484 700 947c14 27 45 9 32 -15c-251 -479 -593 -972 -735 -972c-194 0 161 872 206 965z" />
    <glyph glyph-name="W" unicode="W" horiz-adv-x="1062" 
d="M1260 845c14 27 45 9 32 -15c-251 -479 -596 -951 -738 -951c-144 0 -20 387 91 667c-221 -365 -465 -667 -578 -667c-224 0 164 851 209 944c11 28 46 14 32 -13c-43 -93 -377 -891 -238 -891c120 0 461 463 703 926c14 27 45 9 32 -15l-8 -15c0 -2 -1 -3 -2 -5
c-43 -93 -367 -891 -238 -891c120 0 461 463 703 926z" />
    <glyph glyph-name="X" unicode="X" horiz-adv-x="623" 
d="M752 830c19 22 45 -3 26 -21c-140 -161 -261 -306 -364 -428c37 -203 71 -345 97 -414c15 -29 -19 -44 -29 -17c-37 87 -68 241 -97 397c-178 -210 -296 -340 -356 -340c-25 0 -25 33 0 33c49 0 168 135 348 349c-41 227 -78 443 -121 443c-22 0 -24 39 1 39
c56 0 89 -102 146 -427c1 -7 2 -14 4 -21c98 118 214 256 345 407z" />
    <glyph glyph-name="Y" unicode="Y" horiz-adv-x="560" 
d="M251 849c4 -119 89 -594 121 -638c12 -19 -20 -38 -34 -19c-31 44 -124 541 -128 657c-1 27 40 30 41 0zM13 47c-14 27 20 43 30 17c38 -85 100 -161 158 -161c120 0 505 874 533 940c11 23 46 16 34 -14c-28 -66 -419 -960 -567 -960c-73 0 -146 83 -188 178z" />
    <glyph glyph-name="Yacute" unicode="&#xdd;" horiz-adv-x="560" 
d="M484 958c37 34 50 44 60 52c21 16 47 -8 24 -26c-11 -9 -25 -21 -62 -53c-18 -16 -42 9 -22 27zM251 849c4 -119 89 -594 121 -638c12 -19 -20 -38 -34 -19c-31 44 -124 541 -128 657c-1 27 40 30 41 0zM13 47c-14 27 20 43 30 17c38 -85 100 -161 158 -161
c120 0 505 874 533 940c11 23 46 16 34 -14c-28 -66 -419 -960 -567 -960c-73 0 -146 83 -188 178z" />
    <glyph glyph-name="Ydieresis" unicode="&#x178;" horiz-adv-x="560" 
d="M498 925c-12 0 -22 10 -22 22s10 22 22 22s22 -10 22 -22s-10 -22 -22 -22zM558 925c-12 0 -22 10 -22 22s10 22 22 22s22 -10 22 -22s-10 -22 -22 -22zM251 849c4 -119 89 -594 121 -638c12 -19 -20 -38 -34 -19c-31 44 -124 541 -128 657c-1 27 40 30 41 0zM13 47
c-14 27 20 43 30 17c38 -85 100 -161 158 -161c120 0 505 874 533 940c11 23 46 16 34 -14c-28 -66 -419 -960 -567 -960c-73 0 -146 83 -188 178z" />
    <glyph glyph-name="Z" unicode="Z" horiz-adv-x="666" 
d="M334 823c-32 -4 -31 31 0 34c96 10 388 13 519 -11c27 -5 22 -36 0 -32c-132 24 -421 20 -519 9zM74 -43c-14 -21 -50 -12 -29 18c154 222 497 596 752 802c19 15 40 -10 21 -27c-252 -205 -593 -575 -744 -793zM34 -91c98 -11 387 -15 519 9c22 4 27 -27 0 -32
c-131 -24 -423 -21 -519 -11c-31 3 -32 38 0 34z" />
    <glyph glyph-name="a" unicode="a" horiz-adv-x="486" 
d="M395 123c18 28 46 -1 25 -24c-43 -58 -84 -95 -116 -95c-58 0 -64 66 -41 161c-53 -85 -120 -165 -194 -165c-204 0 -16 500 176 500c40 0 65 -21 77 -54c8 -21 -19 -39 -29 -15c-8 22 -23 35 -48 35c-149 0 -307 -432 -176 -432c106 0 232 270 262 337l3 6
c12 28 24 57 37 85c10 26 43 13 32 -11c-87 -199 -154 -413 -99 -413c20 0 54 35 91 85z" />
    <glyph glyph-name="aacute" unicode="&#xe1;" horiz-adv-x="486" 
d="M237 562c-18 -16 -42 9 -22 27c37 34 50 44 60 52c21 16 47 -8 24 -26c-11 -9 -25 -21 -62 -53zM395 123c18 28 46 -1 25 -24c-43 -58 -84 -95 -116 -95c-58 0 -64 66 -41 161c-53 -85 -120 -165 -194 -165c-204 0 -16 500 176 500c40 0 65 -21 77 -54
c8 -21 -19 -39 -29 -15c-8 22 -23 35 -48 35c-149 0 -307 -432 -176 -432c106 0 232 270 262 337l3 6c12 28 24 57 37 85c10 26 43 13 32 -11c-87 -199 -154 -413 -99 -413c20 0 54 35 91 85z" />
    <glyph glyph-name="acircumflex" unicode="&#xe2;" horiz-adv-x="486" 
d="M207 562c-18 -16 -42 9 -22 27c36 33 49 43 59 51c3 4 9 6 15 6s12 -2 15 -6c10 -8 23 -18 59 -51c20 -18 -4 -43 -22 -27l-52 45c-10 -9 -25 -22 -52 -45zM395 123c18 28 46 -1 25 -24c-43 -58 -84 -95 -116 -95c-58 0 -64 66 -41 161c-53 -85 -120 -165 -194 -165
c-204 0 -16 500 176 500c40 0 65 -21 77 -54c8 -21 -19 -39 -29 -15c-8 22 -23 35 -48 35c-149 0 -307 -432 -176 -432c106 0 232 270 262 337l3 6c12 28 24 57 37 85c10 26 43 13 32 -11c-87 -199 -154 -413 -99 -413c20 0 54 35 91 85z" />
    <glyph glyph-name="adieresis" unicode="&#xe4;" horiz-adv-x="486" 
d="M229 556c-12 0 -22 10 -22 22s10 22 22 22s22 -10 22 -22s-10 -22 -22 -22zM289 556c-12 0 -22 10 -22 22s10 22 22 22s22 -10 22 -22s-10 -22 -22 -22zM395 123c18 28 46 -1 25 -24c-43 -58 -84 -95 -116 -95c-58 0 -64 66 -41 161c-53 -85 -120 -165 -194 -165
c-204 0 -16 500 176 500c40 0 65 -21 77 -54c8 -21 -19 -39 -29 -15c-8 22 -23 35 -48 35c-149 0 -307 -432 -176 -432c106 0 232 270 262 337l3 6c12 28 24 57 37 85c10 26 43 13 32 -11c-87 -199 -154 -413 -99 -413c20 0 54 35 91 85z" />
    <glyph glyph-name="agrave" unicode="&#xe0;" horiz-adv-x="486" 
d="M226 615c-23 18 3 42 24 26c10 -8 23 -18 60 -52c20 -18 -4 -43 -22 -27c-37 32 -51 44 -62 53zM395 123c18 28 46 -1 25 -24c-43 -58 -84 -95 -116 -95c-58 0 -64 66 -41 161c-53 -85 -120 -165 -194 -165c-204 0 -16 500 176 500c40 0 65 -21 77 -54
c8 -21 -19 -39 -29 -15c-8 22 -23 35 -48 35c-149 0 -307 -432 -176 -432c106 0 232 270 262 337l3 6c12 28 24 57 37 85c10 26 43 13 32 -11c-87 -199 -154 -413 -99 -413c20 0 54 35 91 85z" />
    <glyph glyph-name="aring" unicode="&#xe5;" horiz-adv-x="486" 
d="M258 559c-38 0 -69 24 -69 56s31 56 69 56c22 0 42 -9 54 -22c11 -15 -11 -34 -23 -18c-6 6 -18 10 -31 10c-23 0 -40 -12 -40 -26s17 -26 40 -26c21 0 33 4 36 16c0 16 28 17 29 0c0 -33 -29 -46 -65 -46zM395 123c18 28 46 -1 25 -24c-43 -58 -84 -95 -116 -95
c-58 0 -64 66 -41 161c-53 -85 -120 -165 -194 -165c-204 0 -16 500 176 500c40 0 65 -21 77 -54c8 -21 -19 -39 -29 -15c-8 22 -23 35 -48 35c-149 0 -307 -432 -176 -432c106 0 232 270 262 337l3 6c12 28 24 57 37 85c10 26 43 13 32 -11c-87 -199 -154 -413 -99 -413
c20 0 54 35 91 85z" />
    <glyph glyph-name="atilde" unicode="&#xe3;" horiz-adv-x="486" 
d="M216 579c-22 -17 -36 10 -20 24c50 43 82 -19 113 6c21 17 38 -12 18 -26c-49 -42 -80 21 -111 -4zM395 123c18 28 46 -1 25 -24c-43 -58 -84 -95 -116 -95c-58 0 -64 66 -41 161c-53 -85 -120 -165 -194 -165c-204 0 -16 500 176 500c40 0 65 -21 77 -54
c8 -21 -19 -39 -29 -15c-8 22 -23 35 -48 35c-149 0 -307 -432 -176 -432c106 0 232 270 262 337l3 6c12 28 24 57 37 85c10 26 43 13 32 -11c-87 -199 -154 -413 -99 -413c20 0 54 35 91 85z" />
    <glyph glyph-name="ae" unicode="&#xe6;" horiz-adv-x="706" 
d="M297 39c18 -10 6 -43 -19 -29c-33 19 -34 77 -16 155c-52 -85 -119 -165 -193 -165c-204 0 -16 500 176 500c40 0 65 -21 77 -54c8 -21 -19 -39 -29 -15c-8 22 -23 35 -48 35c-149 0 -307 -432 -176 -432c106 0 232 270 262 337l3 6c12 28 24 57 37 85
c10 26 43 13 32 -11c-83 -189 -147 -392 -106 -412zM448 199c164 0 286 267 165 267c-149 0 -337 -432 -166 -432c39 0 87 30 134 73c21 23 46 -12 23 -30c-52 -45 -107 -77 -157 -77c-244 0 -26 500 166 500c180 0 53 -334 -167 -334c-22 0 -24 33 2 33z" />
    <glyph glyph-name="b" unicode="b" horiz-adv-x="410" 
d="M319 500c204 0 6 -500 -186 -500c-40 0 -65 21 -77 54c-8 21 19 39 29 15c8 -22 23 -35 48 -35c149 0 317 432 186 432c-106 0 -266 -306 -295 -373c-1 -2 -1 -3 -2 -4l-38 -90c-8 -22 -44 -14 -32 14l314 746c11 24 48 17 32 -14l-164 -390c56 79 122 145 185 145z" />
    <glyph glyph-name="c" unicode="c" horiz-adv-x="335" 
d="M241 127c25 29 48 -7 25 -27c-48 -47 -111 -100 -176 -100c-244 0 -26 500 166 500c40 0 65 -21 77 -54c8 -21 -19 -39 -29 -15c-8 22 -23 35 -48 35c-149 0 -337 -432 -166 -432c50 0 106 50 151 93z" />
    <glyph glyph-name="ccedilla" unicode="&#xe7;" horiz-adv-x="335" 
d="M333 446c8 -21 -19 -39 -29 -15c-8 22 -23 35 -48 35c-149 0 -337 -432 -166 -432c16 0 32 5 49 13l9 25c7 24 31 21 34 3c21 16 41 35 59 52c25 29 48 -7 25 -27c-29 -28 -63 -59 -100 -79l-5 -12c82 -20 56 -146 -43 -146c-53 0 -98 35 -108 85c-3 22 28 31 34 6
c6 -33 37 -57 74 -57c66 0 80 80 20 81c-11 -2 -22 8 -15 26c-11 -2 -22 -4 -33 -4c-244 0 -26 500 166 500c40 0 65 -21 77 -54z" />
    <glyph glyph-name="d" unicode="d" horiz-adv-x="496" 
d="M479 686c11 20 40 7 30 -16c-121 -212 -282 -632 -205 -632c20 0 54 35 91 85c18 28 46 -1 25 -24c-43 -58 -84 -95 -116 -95c-58 0 -64 66 -41 162c-52 -86 -120 -166 -194 -166c-204 0 -16 500 176 500c40 0 65 -21 77 -54c8 -21 -19 -39 -29 -15c-8 22 -23 35 -48 35
c-149 0 -307 -432 -176 -432c106 0 232 270 262 337c1 2 2 4 3 5c43 106 97 217 145 310z" />
    <glyph glyph-name="eth" unicode="&#xf0;" horiz-adv-x="496" 
d="M479 686c11 20 40 7 30 -16c-121 -212 -282 -632 -205 -632c20 0 54 35 91 85c18 28 46 -1 25 -24c-43 -58 -84 -95 -116 -95c-58 0 -64 66 -41 162c-52 -86 -120 -166 -194 -166c-204 0 -16 500 176 500c40 0 65 -21 77 -54c8 -21 -19 -39 -29 -15c-8 22 -23 35 -48 35
c-149 0 -307 -432 -176 -432c106 0 232 270 262 337c1 2 2 4 3 5c43 106 97 217 145 310zM174 539c-32 -4 -31 33 0 36c51 6 115 8 184 5c34 0 25 -40 0 -35c-68 3 -132 0 -184 -6z" />
    <glyph glyph-name="e" unicode="e" horiz-adv-x="347" 
d="M222 107c21 23 46 -12 23 -30c-52 -45 -107 -77 -157 -77c-244 0 -26 500 166 500c180 0 53 -334 -167 -334c-22 0 -24 33 2 33c164 0 286 267 165 267c-149 0 -337 -432 -166 -432c39 0 87 30 134 73z" />
    <glyph glyph-name="eacute" unicode="&#xe9;" horiz-adv-x="347" 
d="M215 589c37 34 50 44 60 52c21 16 47 -8 24 -26c-11 -9 -25 -21 -62 -53c-18 -16 -42 9 -22 27zM222 107c21 23 46 -12 23 -30c-52 -45 -107 -77 -157 -77c-244 0 -26 500 166 500c180 0 53 -334 -167 -334c-22 0 -24 33 2 33c164 0 286 267 165 267
c-149 0 -337 -432 -166 -432c39 0 87 30 134 73z" />
    <glyph glyph-name="ecircumflex" unicode="&#xea;" horiz-adv-x="347" 
d="M207 562c-18 -16 -42 9 -22 27c36 33 49 43 59 51c3 4 9 6 15 6s12 -2 15 -6c10 -8 23 -18 59 -51c20 -18 -4 -43 -22 -27l-52 45c-10 -9 -25 -22 -52 -45zM254 500c180 0 53 -334 -167 -334c-22 0 -24 33 2 33c164 0 286 267 165 267c-149 0 -337 -432 -166 -432
c39 0 87 30 134 73c21 23 46 -12 23 -30c-52 -45 -107 -77 -157 -77c-244 0 -26 500 166 500z" />
    <glyph glyph-name="edieresis" unicode="&#xeb;" horiz-adv-x="347" 
d="M229 556c-12 0 -22 10 -22 22s10 22 22 22s22 -10 22 -22s-10 -22 -22 -22zM289 556c-12 0 -22 10 -22 22s10 22 22 22s22 -10 22 -22s-10 -22 -22 -22zM222 107c21 23 46 -12 23 -30c-52 -45 -107 -77 -157 -77c-244 0 -26 500 166 500c180 0 53 -334 -167 -334
c-22 0 -24 33 2 33c164 0 286 267 165 267c-149 0 -337 -432 -166 -432c39 0 87 30 134 73z" />
    <glyph glyph-name="egrave" unicode="&#xe8;" horiz-adv-x="347" 
d="M310 589c20 -18 -4 -43 -22 -27c-37 32 -51 44 -62 53c-23 18 3 42 24 26c10 -8 23 -18 60 -52zM222 107c21 23 46 -12 23 -30c-52 -45 -107 -77 -157 -77c-244 0 -26 500 166 500c180 0 53 -334 -167 -334c-22 0 -24 33 2 33c164 0 286 267 165 267
c-149 0 -337 -432 -166 -432c39 0 87 30 134 73z" />
    <glyph glyph-name="f" unicode="f" horiz-adv-x="375" 
d="M332 500c29 0 27 -38 0 -38c-208 0 -486 -726 -325 -726c102 0 146 329 82 329c-28 0 -26 37 0 37c3 0 7 0 10 -1c70 2 138 26 194 66c25 21 39 -16 17 -30c-51 -35 -111 -59 -173 -67c53 -95 -7 -372 -133 -372c-235 0 81 802 328 802z" />
    <glyph glyph-name="g" unicode="g" horiz-adv-x="401" 
d="M388 498c11 27 40 14 32 -10c-67 -210 -272 -898 -519 -898c-201 0 -99 348 206 348c26 0 21 -34 0 -34c-265 0 -349 -280 -206 -280c141 0 274 272 368 522c-64 -79 -138 -146 -202 -146c-204 0 -6 500 186 500c40 0 65 -21 77 -54c8 -21 -19 -39 -29 -15
c-8 22 -23 35 -48 35c-149 0 -317 -432 -186 -432c67 0 170 122 244 229c33 96 60 181 77 235z" />
    <glyph glyph-name="h" unicode="h" horiz-adv-x="502" 
d="M414 126c19 30 45 0 24 -22c-41 -55 -88 -104 -127 -104c-90 0 -41 135 4 260c39 106 71 204 17 204c-79 0 -213 -180 -332 -429l-15 -36c-9 -22 -44 -14 -32 14l314 746c10 24 48 17 32 -14l-183 -434c80 117 157 187 217 187c94 0 59 -124 16 -243
c-40 -112 -82 -221 -37 -221c25 0 58 30 102 92z" />
    <glyph glyph-name="i" unicode="i" horiz-adv-x="250" 
d="M227 610c-14 -27 -47 -15 -31 14c14 33 30 67 47 101c11 20 40 7 30 -16c-16 -33 -32 -66 -46 -99zM162 147c14 25 44 0 25 -25c-49 -71 -98 -118 -135 -118c-95 0 -42 236 91 501c11 20 40 7 30 -16c-107 -212 -168 -451 -121 -451c23 0 66 45 110 109z" />
    <glyph glyph-name="dotlessi" unicode="&#x131;" horiz-adv-x="168" 
d="M162 147c14 25 44 0 25 -25c-49 -71 -98 -118 -135 -118c-95 0 -42 236 91 501c11 20 40 7 30 -16c-107 -212 -168 -451 -121 -451c23 0 66 45 110 109z" />
    <glyph glyph-name="iacute" unicode="&#xed;" horiz-adv-x="168" 
d="M135 629c37 34 50 44 60 52c21 16 47 -8 24 -26c-11 -9 -25 -21 -62 -53c-18 -16 -42 9 -22 27zM162 147c14 25 44 0 25 -25c-49 -71 -98 -118 -135 -118c-95 0 -42 236 91 501c11 20 40 7 30 -16c-107 -212 -168 -451 -121 -451c23 0 66 45 110 109z" />
    <glyph glyph-name="icircumflex" unicode="&#xee;" horiz-adv-x="168" 
d="M253 629c20 -18 -4 -43 -22 -27l-52 45c-10 -9 -25 -22 -52 -45c-18 -16 -42 9 -22 27c36 33 49 43 59 51c3 4 9 6 15 6s12 -2 15 -6c10 -8 23 -18 59 -51zM162 147c14 25 44 0 25 -25c-49 -71 -98 -118 -135 -118c-95 0 -42 236 91 501c11 20 40 7 30 -16
c-107 -212 -168 -451 -121 -451c23 0 66 45 110 109z" />
    <glyph glyph-name="idieresis" unicode="&#xef;" horiz-adv-x="168" 
d="M149 596c-12 0 -22 10 -22 22s10 22 22 22s22 -10 22 -22s-10 -22 -22 -22zM209 596c-12 0 -22 10 -22 22s10 22 22 22s22 -10 22 -22s-10 -22 -22 -22zM162 147c14 25 44 0 25 -25c-49 -71 -98 -118 -135 -118c-95 0 -42 236 91 501c11 20 40 7 30 -16
c-107 -212 -168 -451 -121 -451c23 0 66 45 110 109z" />
    <glyph glyph-name="igrave" unicode="&#xec;" horiz-adv-x="168" 
d="M230 629c20 -18 -4 -43 -22 -27c-37 32 -51 44 -62 53c-23 18 3 42 24 26c10 -8 23 -18 60 -52zM162 147c14 25 44 0 25 -25c-49 -71 -98 -118 -135 -118c-95 0 -42 236 91 501c11 20 40 7 30 -16c-107 -212 -168 -451 -121 -451c23 0 66 45 110 109z" />
    <glyph glyph-name="j" unicode="j" horiz-adv-x="164" 
d="M219 620c-14 -27 -47 -15 -31 14c14 33 30 67 47 101c11 20 40 7 30 -16c-16 -33 -32 -66 -46 -99zM-298 -404c-30 -11 -43 26 -10 32c209 53 384 669 448 870c11 27 40 14 32 -10c-63 -199 -241 -827 -470 -892z" />
    <glyph glyph-name="k" unicode="k" horiz-adv-x="486" 
d="M349 468c-129 0 -302 -323 -339 -408l-26 -61c-9 -22 -44 -14 -32 14l314 746c10 24 48 17 32 -14l-184 -436c71 101 158 193 235 193c137 0 28 -302 -205 -302c-22 0 -22 34 0 34c194 0 274 234 205 234zM397 105c17 26 43 -3 25 -23c-43 -54 -85 -93 -129 -93
c-86 0 -164 105 -197 160c-13 21 16 40 29 17c30 -50 99 -143 168 -143c33 0 66 33 104 82z" />
    <glyph glyph-name="l" unicode="l" horiz-adv-x="232" 
d="M132 147c14 25 44 0 25 -25c-49 -71 -88 -118 -135 -118c-127 0 16 387 181 682c11 20 40 7 30 -16c-139 -242 -268 -632 -211 -632c33 0 66 45 110 109z" />
    <glyph glyph-name="lslash" unicode="&#x142;" horiz-adv-x="232" 
d="M132 147c14 25 44 0 25 -25c-49 -71 -88 -118 -135 -118c-127 0 16 387 181 682c11 20 40 7 30 -16c-139 -242 -268 -632 -211 -632c33 0 66 45 110 109zM124 296c-25 0 -25 35 1 35c21 0 42 0 63 -1c34 0 25 -40 0 -35c-22 1 -43 1 -64 1z" />
    <glyph glyph-name="m" unicode="m" 
d="M332 498c94 0 59 -124 16 -243c-8 -22 -73 -214 -81 -235c-9 -35 -45 -27 -35 0c7 23 74 217 82 240c39 106 71 204 17 204c-79 0 -213 -180 -332 -429l-15 -36c-9 -22 -44 -14 -32 14l205 488c10 24 48 17 32 -14l-74 -177c80 118 156 188 217 188zM637 105
c17 23 42 0 24 -22c-37 -46 -77 -83 -111 -83c-90 0 -41 135 4 260c39 106 71 204 17 204c-34 0 -78 -33 -126 -90c-21 -19 -40 8 -22 26c55 62 106 98 149 98c94 0 59 -124 16 -243c-40 -112 -82 -221 -37 -221c22 0 50 24 86 71z" />
    <glyph glyph-name="n" unicode="n" horiz-adv-x="502" 
d="M409 121c17 21 44 0 24 -23c-40 -53 -85 -98 -123 -98c-90 0 -41 135 4 260c39 106 71 204 17 204c-79 0 -213 -180 -332 -429l-15 -36c-9 -22 -44 -14 -32 14l205 488c10 24 48 17 32 -14l-74 -177c80 118 156 188 217 188c94 0 59 -124 16 -243
c-40 -112 -82 -221 -37 -221c24 0 56 29 98 87z" />
    <glyph glyph-name="ntilde" unicode="&#xf1;" horiz-adv-x="502" 
d="M291 579c-22 -17 -36 10 -20 24c50 43 82 -19 113 6c21 17 38 -12 18 -26c-49 -42 -80 21 -111 -4zM409 121c17 21 44 0 24 -23c-40 -53 -85 -98 -123 -98c-90 0 -41 135 4 260c39 106 71 204 17 204c-79 0 -213 -180 -332 -429l-15 -36c-9 -22 -44 -14 -32 14l205 488
c10 24 48 17 32 -14l-74 -177c80 118 156 188 217 188c94 0 59 -124 16 -243c-40 -112 -82 -221 -37 -221c24 0 56 29 98 87z" />
    <glyph glyph-name="o" unicode="o" horiz-adv-x="376" 
d="M294 227c7 28 42 18 32 -11c-44 -107 -136 -216 -228 -216c-244 0 -26 500 166 500c129 0 103 -163 92 -196c-7 -21 -41 -16 -33 7c8 22 28 155 -59 155c-149 0 -337 -432 -166 -432c79 0 158 95 196 193z" />
    <glyph glyph-name="oacute" unicode="&#xf3;" horiz-adv-x="376" 
d="M272 589c37 34 50 44 60 52c21 16 47 -8 24 -26c-11 -9 -25 -21 -62 -53c-18 -16 -42 9 -22 27zM294 227c7 28 42 18 32 -11c-44 -107 -136 -216 -228 -216c-244 0 -26 500 166 500c129 0 103 -163 92 -196c-7 -21 -41 -16 -33 7c8 22 28 155 -59 155
c-149 0 -337 -432 -166 -432c79 0 158 95 196 193z" />
    <glyph glyph-name="ocircumflex" unicode="&#xf4;" horiz-adv-x="376" 
d="M390 589c20 -18 -4 -43 -22 -27l-52 45c-10 -9 -25 -22 -52 -45c-18 -16 -42 9 -22 27c36 33 49 43 59 51c3 4 9 6 15 6s12 -2 15 -6c10 -8 23 -18 59 -51zM264 500c129 0 103 -163 92 -196c-7 -21 -41 -16 -33 7c8 22 28 155 -59 155c-149 0 -337 -432 -166 -432
c79 0 158 95 196 193c7 28 42 18 32 -11c-44 -107 -136 -216 -228 -216c-244 0 -26 500 166 500z" />
    <glyph glyph-name="ograve" unicode="&#xf2;" horiz-adv-x="376" 
d="M367 589c20 -18 -4 -43 -22 -27c-37 32 -51 44 -62 53c-23 18 3 42 24 26c10 -8 23 -18 60 -52zM294 227c7 28 42 18 32 -11c-44 -107 -136 -216 -228 -216c-244 0 -26 500 166 500c129 0 103 -163 92 -196c-7 -21 -41 -16 -33 7c8 22 28 155 -59 155
c-149 0 -337 -432 -166 -432c79 0 158 95 196 193z" />
    <glyph glyph-name="oslash" unicode="&#xf8;" horiz-adv-x="376" 
d="M357 608l-36 -84c-9 -26 -47 -15 -34 15l36 84c11 30 46 13 34 -15zM294 227c7 28 42 18 32 -11c-44 -107 -136 -216 -228 -216c-244 0 -26 500 166 500c129 0 103 -163 92 -196c-7 -21 -41 -16 -33 7c8 22 28 155 -59 155c-149 0 -337 -432 -166 -432
c79 0 158 95 196 193zM273 410l-147 -338c-14 -24 -46 -11 -35 14l148 339c11 28 45 13 34 -15zM75 -47l-38 -89c-15 -28 -46 -14 -35 13l38 90c12 28 45 13 35 -14z" />
    <glyph glyph-name="otilde" unicode="&#xf5;" horiz-adv-x="376" 
d="M366 609c21 17 38 -12 18 -26c-49 -42 -80 21 -111 -4c-22 -17 -36 10 -20 24c50 43 82 -19 113 6zM294 227c7 28 42 18 32 -11c-44 -107 -136 -216 -228 -216c-244 0 -26 500 166 500c129 0 103 -163 92 -196c-7 -21 -41 -16 -33 7c8 22 28 155 -59 155
c-149 0 -337 -432 -166 -432c79 0 158 95 196 193z" />
    <glyph glyph-name="oe" unicode="&#x153;" horiz-adv-x="638" 
d="M294 227c7 28 42 18 32 -11c-44 -107 -136 -216 -228 -216c-244 0 -26 500 166 500c129 0 103 -163 92 -196c-7 -21 -41 -16 -33 7c8 22 28 155 -59 155c-149 0 -337 -432 -166 -432c79 0 158 95 196 193zM421 382c-23 -25 -46 6 -28 26c49 60 96 92 152 92
c180 0 53 -334 -167 -334c-22 0 -24 33 2 33c164 0 286 267 165 267c-45 0 -83 -29 -124 -84zM279 65c-7 30 32 38 38 11c9 -26 29 -42 62 -42c39 0 87 30 134 73c21 23 46 -12 23 -30c-52 -45 -107 -77 -157 -77c-55 0 -87 25 -100 65z" />
    <glyph glyph-name="p" unicode="p" horiz-adv-x="416" 
d="M320 500c204 0 6 -500 -186 -500c-40 0 -65 21 -77 54c-8 21 19 39 29 15c8 -22 23 -35 48 -35c149 0 317 432 186 432c-97 0 -238 -254 -284 -350l-162 -384c-8 -22 -46 -14 -34 14l314 746c11 24 50 17 34 -14l-50 -119c55 77 120 141 182 141z" />
    <glyph glyph-name="thorn" unicode="&#xfe;" horiz-adv-x="368" 
d="M272 500c204 0 6 -500 -186 -500c-40 0 -65 21 -77 54c-8 21 19 39 29 15c8 -22 23 -35 48 -35c149 0 317 432 186 432c-93 0 -227 -234 -278 -337l-120 -283c-8 -22 -46 -14 -34 14l343 809c11 24 50 17 34 -14l-123 -290c54 74 117 135 178 135z" />
    <glyph glyph-name="q" unicode="q" horiz-adv-x="420" 
d="M373 411l38 90c8 22 44 14 32 -14l-314 -746c-11 -24 -48 -17 -32 14l164 390c-56 -79 -122 -145 -185 -145c-204 0 -6 500 186 500c40 0 65 -21 77 -54c8 -21 -19 -39 -29 -15c-8 22 -23 35 -48 35c-149 0 -317 -432 -186 -432c106 0 266 306 295 373c1 2 1 3 2 4z" />
    <glyph glyph-name="r" unicode="r" horiz-adv-x="405" 
d="M337 498c74 0 66 -81 40 -171c-9 -28 -44 -24 -33 5c24 75 33 132 -8 132c-79 0 -213 -180 -332 -429l-15 -36c-9 -22 -44 -14 -32 14l205 488c10 24 48 17 32 -14l-74 -177c80 118 156 188 217 188z" />
    <glyph glyph-name="s" unicode="s" horiz-adv-x="359" 
d="M104 485c86 22 188 24 282 6c28 -4 20 -41 -6 -34c-89 18 -187 16 -268 -4c-24 -6 -34 27 -8 32zM1 214c9 36 48 20 35 -12c-40 -112 -19 -185 52 -185c115 0 227 213 45 370c-16 17 11 40 29 26c200 -173 72 -430 -74 -430c-100 0 -135 96 -87 231z" />
    <glyph glyph-name="scaron" unicode="&#x161;" horiz-adv-x="359" 
d="M185 614c-20 18 4 43 22 27l52 -45c10 9 25 22 52 45c18 16 42 -9 22 -27c-36 -33 -49 -43 -59 -51c-3 -4 -9 -6 -15 -6s-12 2 -15 6c-10 8 -23 18 -59 51zM386 491c28 -4 20 -41 -6 -34c-89 18 -187 16 -268 -4c-24 -6 -34 27 -8 32c86 22 188 24 282 6zM162 413
c200 -173 72 -430 -74 -430c-100 0 -135 96 -87 231c9 36 48 20 35 -12c-40 -112 -19 -185 52 -185c115 0 227 213 45 370c-16 17 11 40 29 26z" />
    <glyph glyph-name="germandbls" unicode="&#xdf;" horiz-adv-x="520" 
d="M472 846c217 0 187 -447 -153 -517c275 -119 100 -569 -385 -435c-22 6 -13 42 10 33c492 -136 629 370 255 395c-26 5 -17 38 6 34l20 -2v0c383 0 433 458 247 458c-265 0 -421 -484 -491 -822c-4 -29 -41 -31 -34 6c72 342 236 850 525 850z" />
    <glyph glyph-name="t" unicode="t" horiz-adv-x="307" 
d="M247 643c-10 -21 -42 -15 -29 13c18 36 35 71 52 103c11 20 40 7 30 -16c-17 -29 -34 -63 -53 -100zM388 580c23 -5 16 -36 -6 -32c-129 23 -181 17 -280 10c-26 -2 -22 31 0 32c112 6 155 12 286 -10zM143 498c13 27 39 7 30 -13c-95 -215 -172 -447 -111 -447
c31 0 99 86 156 186c14 25 44 9 30 -16c-66 -116 -136 -204 -186 -204c-114 0 -29 251 81 494z" />
    <glyph glyph-name="u" unicode="u" horiz-adv-x="455" 
d="M357 505c11 20 40 7 30 -16c-107 -212 -168 -451 -121 -451c19 0 38 13 75 62c23 32 48 4 30 -19c-43 -57 -73 -77 -105 -77c-50 0 -59 64 -38 163c-55 -86 -118 -163 -166 -163c-125 0 -72 236 61 501c11 20 40 7 30 -16c-107 -212 -168 -451 -91 -451
c50 0 146 156 204 256c23 65 54 137 91 211z" />
    <glyph glyph-name="uacute" unicode="&#xfa;" horiz-adv-x="455" 
d="M248 562c-18 -16 -42 9 -22 27c37 34 50 44 60 52c21 16 47 -8 24 -26c-11 -9 -25 -21 -62 -53zM357 505c11 20 40 7 30 -16c-107 -212 -168 -451 -121 -451c19 0 38 13 75 62c23 32 48 4 30 -19c-43 -57 -73 -77 -105 -77c-50 0 -59 64 -38 163
c-55 -86 -118 -163 -166 -163c-125 0 -72 236 61 501c11 20 40 7 30 -16c-107 -212 -168 -451 -91 -451c50 0 146 156 204 256c23 65 54 137 91 211z" />
    <glyph glyph-name="ucircumflex" unicode="&#xfb;" horiz-adv-x="455" 
d="M218 562c-18 -16 -42 9 -22 27c36 33 49 43 59 51c3 4 9 6 15 6s12 -2 15 -6c10 -8 23 -18 59 -51c20 -18 -4 -43 -22 -27l-52 45c-10 -9 -25 -22 -52 -45zM357 505c11 20 40 7 30 -16c-107 -212 -168 -451 -121 -451c19 0 38 13 75 62c23 32 48 4 30 -19
c-43 -57 -73 -77 -105 -77c-50 0 -59 64 -38 163c-55 -86 -118 -163 -166 -163c-125 0 -72 236 61 501c11 20 40 7 30 -16c-107 -212 -168 -451 -91 -451c50 0 146 156 204 256c23 65 54 137 91 211z" />
    <glyph glyph-name="udieresis" unicode="&#xfc;" horiz-adv-x="455" 
d="M240 556c-12 0 -22 10 -22 22s10 22 22 22s22 -10 22 -22s-10 -22 -22 -22zM300 556c-12 0 -22 10 -22 22s10 22 22 22s22 -10 22 -22s-10 -22 -22 -22zM357 505c11 20 40 7 30 -16c-107 -212 -168 -451 -121 -451c19 0 38 13 75 62c23 32 48 4 30 -19
c-43 -57 -73 -77 -105 -77c-50 0 -59 64 -38 163c-55 -86 -118 -163 -166 -163c-125 0 -72 236 61 501c11 20 40 7 30 -16c-107 -212 -168 -451 -91 -451c50 0 146 156 204 256c23 65 54 137 91 211z" />
    <glyph glyph-name="ugrave" unicode="&#xf9;" horiz-adv-x="455" 
d="M237 615c-23 18 3 42 24 26c10 -8 23 -18 60 -52c20 -18 -4 -43 -22 -27c-37 32 -51 44 -62 53zM357 505c11 20 40 7 30 -16c-107 -212 -168 -451 -121 -451c19 0 38 13 75 62c23 32 48 4 30 -19c-43 -57 -73 -77 -105 -77c-50 0 -59 64 -38 163
c-55 -86 -118 -163 -166 -163c-125 0 -72 236 61 501c11 20 40 7 30 -16c-107 -212 -168 -451 -91 -451c50 0 146 156 204 256c23 65 54 137 91 211z" />
    <glyph glyph-name="v" unicode="v" horiz-adv-x="376" 
d="M391 484c15 29 46 10 31 -16c-34 -54 -248 -469 -374 -469c-100 0 -73 198 73 511c11 27 51 19 38 -10c-130 -273 -166 -464 -105 -464c55 0 156 128 309 399c12 23 22 40 28 49z" />
    <glyph glyph-name="w" unicode="w" horiz-adv-x="675" 
d="M663 484c15 29 53 10 38 -16c-34 -54 -248 -469 -374 -469c-70 0 -78 97 -26 263c-79 -126 -181 -263 -253 -263c-100 0 -73 198 73 511c11 27 51 19 38 -10c-130 -273 -166 -464 -105 -464c55 0 156 128 309 399c6 12 12 22 17 31c6 14 13 29 20 44c11 27 51 19 38 -10
c-130 -273 -166 -464 -105 -464c48 0 149 128 302 399c12 23 22 40 28 49z" />
    <glyph glyph-name="x" unicode="x" horiz-adv-x="449" 
d="M357 98c16 20 45 2 25 -22c-52 -66 -89 -95 -141 -95c-145 0 -158 354 -122 523c7 28 42 18 37 -8c-50 -230 0 -481 85 -481c41 0 70 25 116 83zM196 271c-22 -21 -42 7 -24 23c74 82 136 142 197 201c24 27 49 -4 24 -24c-62 -59 -123 -119 -197 -200zM53 171
c19 24 45 -3 24 -23c-50 -63 -94 -124 -122 -178c-15 -25 -48 -10 -30 16c29 56 75 121 128 185z" />
    <glyph glyph-name="y" unicode="y" horiz-adv-x="367" 
d="M344 498c11 27 40 14 32 -10c-15 -46 -36 -114 -62 -193c-1 -4 -2 -7 -4 -11c-97 -284 -262 -694 -453 -694c-201 0 -79 348 226 348c26 0 21 -34 0 -34c-265 0 -369 -280 -226 -280c142 0 275 274 370 526c-55 -79 -114 -146 -159 -146c-125 0 -72 236 61 501
c11 20 40 7 30 -16c-107 -212 -168 -451 -91 -451c51 0 155 162 212 262c27 80 49 151 64 198z" />
    <glyph glyph-name="yacute" unicode="&#xfd;" horiz-adv-x="367" 
d="M256 562c-18 -16 -42 9 -22 27c37 34 50 44 60 52c21 16 47 -8 24 -26c-11 -9 -25 -21 -62 -53zM344 498c11 27 40 14 32 -10c-15 -46 -36 -114 -62 -193c-1 -4 -2 -7 -4 -11c-97 -284 -262 -694 -453 -694c-201 0 -79 348 226 348c26 0 21 -34 0 -34
c-265 0 -369 -280 -226 -280c142 0 275 274 370 526c-55 -79 -114 -146 -159 -146c-125 0 -72 236 61 501c11 20 40 7 30 -16c-107 -212 -168 -451 -91 -451c51 0 155 162 212 262c27 80 49 151 64 198z" />
    <glyph glyph-name="ydieresis" unicode="&#xff;" horiz-adv-x="367" 
d="M248 556c-12 0 -22 10 -22 22s10 22 22 22s22 -10 22 -22s-10 -22 -22 -22zM308 556c-12 0 -22 10 -22 22s10 22 22 22s22 -10 22 -22s-10 -22 -22 -22zM344 498c11 27 40 14 32 -10c-15 -46 -36 -114 -62 -193c-1 -4 -2 -7 -4 -11c-97 -284 -262 -694 -453 -694
c-201 0 -79 348 226 348c26 0 21 -34 0 -34c-265 0 -369 -280 -226 -280c142 0 275 274 370 526c-55 -79 -114 -146 -159 -146c-125 0 -72 236 61 501c11 20 40 7 30 -16c-107 -212 -168 -451 -91 -451c51 0 155 162 212 262c27 80 49 151 64 198z" />
    <glyph glyph-name="z" unicode="z" horiz-adv-x="377" 
d="M370 501c26 -5 16 -38 -8 -32c-81 20 -179 22 -268 4c-26 -7 -34 30 -6 34c94 18 196 16 282 -6zM252 64c30 28 50 -13 20 -29c-79 -49 -136 -53 -285 -7c-21 5 -35 17 -21 50c47 139 223 279 365 358c23 14 39 -17 16 -30c-133 -74 -315 -218 -351 -345
c134 -40 183 -41 256 3z" />
    <glyph glyph-name="zcaron" unicode="&#x17e;" horiz-adv-x="377" 
d="M195 614c-20 18 4 43 22 27l52 -45c10 9 25 22 52 45c18 16 42 -9 22 -27c-36 -33 -49 -43 -59 -51c-3 -4 -9 -6 -15 -6s-12 2 -15 6c-10 8 -23 18 -59 51zM370 501c26 -5 16 -38 -8 -32c-81 20 -179 22 -268 4c-26 -7 -34 30 -6 34c94 18 196 16 282 -6zM331 436
c23 14 39 -17 16 -30c-133 -74 -315 -218 -351 -345c134 -40 183 -41 256 3c30 28 50 -13 20 -29c-79 -49 -136 -53 -285 -7c-21 5 -35 17 -21 50c47 139 223 279 365 358z" />
    <glyph glyph-name="L_f" horiz-adv-x="750" 
d="M12 -69l388 922c10 24 50 17 34 -14l-388 -922c-9 -22 -46 -15 -34 14zM707 500c29 0 27 -38 0 -38c-208 0 -486 -726 -325 -726c102 0 146 329 82 329c-28 0 -26 37 0 37c3 0 7 0 10 -1c70 2 138 26 194 66c25 21 39 -16 17 -30c-51 -35 -111 -59 -173 -67
c53 -95 -7 -372 -133 -372c-235 0 81 802 328 802zM245 -84c29 0 26 -38 -1 -36c-73 0 -123 1 -146 -1c-29 -2 -24 33 2 35c22 2 73 2 145 2zM375 -119c-25 0 -20 35 1 34c26 0 52 -1 75 -1c22 0 19 -36 -6 -34c-23 0 -44 1 -70 1z" />
    <glyph glyph-name="L_g" horiz-adv-x="776" 
d="M12 -69l388 922c10 24 50 17 34 -14l-388 -922c-9 -22 -46 -15 -34 14zM763 498c11 27 40 14 32 -10c-67 -210 -272 -898 -519 -898c-134 0 -133 135 -27 239c25 20 39 -9 22 -25c-85 -83 -87 -180 5 -180c141 0 274 272 368 522c-64 -79 -138 -146 -202 -146
c-204 0 -6 500 186 500c40 0 65 -21 77 -54c8 -21 -19 -39 -29 -15c-8 22 -23 35 -48 35c-149 0 -317 -432 -186 -432c67 0 170 122 244 229c33 96 60 181 77 235zM477 -122c-121 5 -332 4 -379 1c-29 -2 -24 33 2 35c45 4 257 4 379 -1c32 0 24 -36 -2 -35z" />
    <glyph glyph-name="L_j" horiz-adv-x="539" 
d="M12 -69l388 922c10 24 50 17 34 -14l-388 -922c-9 -22 -46 -15 -34 14zM594 620c-14 -27 -47 -15 -31 14c14 33 30 67 47 101c11 20 40 7 30 -16c-16 -33 -32 -66 -46 -99zM77 -404c-30 -11 -43 26 -10 32c209 53 384 669 448 870c11 27 40 14 32 -10
c-63 -199 -241 -827 -470 -892zM245 -83c24 2 22 -38 -1 -36c-72 0 -123 0 -146 -2c-29 -2 -24 33 2 35c22 2 73 3 145 3zM376 -119c-30 0 -22 36 0 35c87 -2 158 -5 181 -9s19 -38 -3 -34c-23 4 -93 7 -178 8z" />
    <glyph glyph-name="L_p" horiz-adv-x="791" 
d="M12 -69l388 922c10 24 50 17 34 -14l-388 -922c-9 -22 -46 -15 -34 14zM695 500c204 0 6 -500 -186 -500c-40 0 -65 21 -77 54c-8 21 19 39 29 15c8 -22 23 -35 48 -35c149 0 317 432 186 432c-97 0 -238 -254 -284 -350l-162 -384c-8 -22 -46 -14 -34 14l314 746
c11 24 50 17 34 -14l-50 -119c55 77 120 141 182 141zM221 -83c27 2 25 -36 0 -36c-66 0 -101 -1 -123 -2c-29 -2 -24 33 2 35c21 2 56 3 121 3zM557 -93c23 -4 19 -38 -3 -34c-24 5 -90 7 -181 8c-29 0 -23 36 1 35c91 -1 158 -4 183 -9z" />
    <glyph glyph-name="L_q" horiz-adv-x="795" 
d="M12 -69l388 922c10 24 50 17 34 -14l-388 -922c-9 -22 -46 -15 -34 14zM748 411l38 90c8 22 44 14 32 -14l-314 -746c-11 -24 -48 -17 -32 14l164 390c-56 -79 -122 -145 -185 -145c-204 0 -6 500 186 500c40 0 65 -21 77 -54c8 -21 -19 -39 -29 -15c-8 22 -23 35 -48 35
c-149 0 -317 -432 -186 -432c106 0 266 306 295 373c1 2 1 3 2 4zM457 -93c23 -4 19 -38 -3 -34c-53 10 -294 10 -356 6c-29 -2 -24 33 2 35c59 5 304 3 357 -7z" />
    <glyph glyph-name="L_y" 
d="M12 -69l388 922c10 24 50 17 34 -14l-388 -922c-9 -22 -46 -15 -34 14zM719 498c11 27 40 14 32 -10c-15 -46 -36 -114 -62 -193c-1 -4 -2 -7 -4 -11c-97 -284 -262 -694 -453 -694c-128 0 -125 132 -26 234c21 20 41 -2 21 -24c-78 -81 -83 -176 5 -176
c142 0 275 274 370 526c-55 -79 -114 -146 -159 -146c-125 0 -72 236 61 501c11 20 40 7 30 -16c-107 -212 -168 -451 -91 -451c51 0 155 162 212 262c27 80 49 151 64 198zM428 -119c-123 3 -287 2 -330 -1c-29 -2 -24 32 2 34c41 3 207 4 330 0c24 0 24 -34 -2 -33z" />
    <glyph glyph-name="Z_y" horiz-adv-x="1033" 
d="M334 823c-32 -4 -31 31 0 34c96 10 388 13 519 -11c27 -5 22 -36 0 -32c-132 24 -421 20 -519 9zM74 -43c-14 -21 -50 -12 -29 18c154 222 497 596 752 802c19 15 40 -10 21 -27c-252 -205 -593 -575 -744 -793zM1010 498c11 27 40 14 32 -10c-15 -46 -36 -114 -62 -193
c-1 -4 -2 -7 -4 -11c-97 -284 -262 -694 -453 -694c-125 0 -135 115 -43 217c19 22 43 -2 23 -22c-73 -81 -65 -161 20 -161c142 0 275 274 370 526c-55 -79 -114 -146 -159 -146c-125 0 -72 236 61 501c11 20 40 7 30 -16c-107 -212 -168 -451 -91 -451
c51 0 155 162 212 262c27 80 49 151 64 198zM703 -82c22 4 27 -27 0 -32c-131 -24 -573 -21 -669 -11c-31 3 -32 38 0 34c98 -11 537 -15 669 9z" />
    <glyph glyph-name="t_t" horiz-adv-x="614" 
d="M247 643c-10 -21 -42 -15 -29 13c18 36 35 71 52 103c11 20 40 7 30 -16c-17 -29 -34 -63 -53 -100zM527 643c-10 -21 -42 -15 -29 13c18 36 35 71 52 103c11 20 40 7 30 -16c-17 -29 -34 -63 -53 -100zM695 580c23 -5 16 -34 -6 -30c-129 23 -482 21 -621 -2
c-25 -8 -28 26 -6 30c142 22 500 24 633 2zM143 498c13 27 39 7 30 -13c-95 -215 -172 -447 -111 -447c31 0 99 86 156 186c14 25 44 9 30 -16c-66 -116 -136 -204 -186 -204c-114 0 -29 251 81 494zM423 498c13 27 39 7 30 -13c-95 -215 -172 -447 -111 -447
c31 0 99 86 156 186c14 25 44 9 30 -16c-66 -116 -136 -204 -186 -204c-114 0 -29 251 81 494z" />
    <glyph glyph-name="ordfeminine" unicode="&#xaa;" horiz-adv-x="486" 
d="M395 123c18 28 46 -1 25 -24c-43 -58 -84 -95 -116 -95c-58 0 -64 66 -41 161c-53 -85 -120 -165 -194 -165c-204 0 -16 500 176 500c40 0 65 -21 77 -54c8 -21 -19 -39 -29 -15c-8 22 -23 35 -48 35c-149 0 -307 -432 -176 -432c106 0 232 270 262 337l3 6
c12 28 24 57 37 85c10 26 43 13 32 -11c-87 -199 -154 -413 -99 -413c20 0 54 35 91 85z" />
    <glyph glyph-name="ordmasculine" unicode="&#xba;" horiz-adv-x="376" 
d="M294 227c7 28 42 18 32 -11c-44 -107 -136 -216 -228 -216c-244 0 -26 500 166 500c129 0 103 -163 92 -196c-7 -21 -41 -16 -33 7c8 22 28 155 -59 155c-149 0 -337 -432 -166 -432c79 0 158 95 196 193z" />
    <glyph glyph-name="zero" unicode="0" horiz-adv-x="712" 
d="M645 458c3 29 44 33 39 -4c-58 -272 -295 -614 -529 -585c-357 45 -15 1026 400 996c125 -9 166 -136 148 -294c-4 -34 -40 -26 -36 2c14 138 -20 249 -121 258c-354 31 -679 -892 -377 -929c199 -24 416 305 476 556z" />
    <glyph glyph-name="one" unicode="1" horiz-adv-x="630" 
d="M615 866c8 -3 14 -12 6 -27l-370 -866c-9 -22 -46 -15 -34 14l342 800c-84 -88 -167 -201 -209 -269c-16 -28 -44 -6 -26 20c51 82 167 236 266 324c9 8 18 8 25 4zM398 -104c27 -5 22 -36 0 -32c-132 24 -271 24 -369 13c-32 -4 -31 31 0 34c96 10 238 9 369 -15z" />
    <glyph glyph-name="two" unicode="2" horiz-adv-x="760" 
d="M79 -30c-15 -24 -48 -7 -28 20c52 70 670 282 670 670c0 111 -67 188 -161 188c-162 0 -290 -134 -368 -368c-7 -24 -44 -20 -32 14c84 246 224 388 400 388c114 0 195 -93 195 -222c0 -315 -365 -509 -564 -620c-82 -46 -105 -61 -112 -70zM29 -91c98 -11 387 -15 519 9
c22 4 27 -27 0 -32c-131 -24 -423 -21 -519 -11c-31 3 -32 38 0 34z" />
    <glyph glyph-name="three" unicode="3" horiz-adv-x="731" 
d="M371 312c-25 0 -25 34 0 34c373 0 418 494 150 494c-199 0 -347 -209 -347 -322c0 -24 -34 -29 -34 0c0 123 164 356 381 356c318 0 265 -562 -150 -562zM563 278c-14 23 18 39 28 17c85 -170 -97 -439 -324 -439c-109 0 -195 40 -258 119c-14 21 9 41 25 21
c58 -72 133 -107 233 -107c200 0 368 240 296 389z" />
    <glyph glyph-name="four" unicode="4" horiz-adv-x="691" 
d="M42 212c-13 -30 -47 -20 -34 12c70 183 249 480 368 658c18 29 45 5 30 -18c-119 -178 -296 -471 -364 -652zM246 -90l402 943c10 24 50 17 34 -14l-402 -943c-9 -22 -46 -15 -34 14zM319 237c26 -3 21 -38 -7 -34c-82 5 -139 3 -201 -4c-32 -4 -32 33 -1 36
c62 6 123 8 209 2z" />
    <glyph glyph-name="five" unicode="5" horiz-adv-x="885" 
d="M415 843c-31 8 -18 44 10 35c185 -60 405 -34 422 -18c30 17 44 -18 22 -29c-25 -22 -263 -50 -454 12zM399 788l-148 -324c-11 -27 -49 -20 -34 14l148 324c11 24 45 10 34 -14zM5 -3c-5 34 31 29 34 6c5 -29 64 -104 182 -104c404 0 600 563 252 563
c-108 0 -191 -65 -221 -89c-28 -22 -46 10 -22 26c30 24 123 97 243 97c406 0 188 -631 -252 -631c-134 0 -209 95 -216 132z" />
    <glyph glyph-name="six" unicode="6" horiz-adv-x="712" 
d="M198 343c-25 -25 -46 10 -24 26c193 176 482 151 482 -61c0 -224 -224 -445 -450 -445c-469 0 -40 1005 481 1005c27 0 25 -34 0 -34c-485 0 -888 -937 -481 -937c207 0 416 206 416 411c0 199 -268 179 -424 35z" />
    <glyph glyph-name="seven" unicode="7" horiz-adv-x="712" 
d="M199 843c-31 8 -18 44 10 35c185 -60 427 -34 444 -18c30 17 44 -18 22 -29c-25 -22 -285 -50 -476 12zM44 -128c-7 -29 -47 -26 -38 8c68 277 548 855 672 899c27 13 41 -21 16 -32c-114 -42 -583 -606 -650 -875z" />
    <glyph glyph-name="eight" unicode="8" horiz-adv-x="890" 
d="M239 -134c-27 -3 -24 34 0 34c297 0 488 381 220 558c-242 160 -107 416 220 416c29 0 24 -34 0 -34c-285 0 -409 -217 -202 -354c300 -199 89 -620 -238 -620zM591 471c-33 -16 -55 19 -25 29c155 49 259 85 281 172c27 110 -58 162 -90 162c-27 0 -30 34 0 34
c40 0 157 -68 122 -204c-25 -101 -134 -143 -288 -193zM390 442c25 7 36 -21 16 -31c-202 -66 -367 -140 -367 -322c0 -93 68 -187 132 -187c22 0 24 -34 0 -34c-84 0 -166 110 -166 221c0 202 179 285 385 353z" />
    <glyph glyph-name="nine" unicode="9" horiz-adv-x="740" 
d="M544 378c25 25 46 -10 24 -26c-223 -236 -512 -91 -512 131c0 414 679 544 679 126c0 -298 -332 -746 -710 -746c-27 0 -25 34 0 34c361 0 674 444 674 714c0 369 -609 237 -609 -128c0 -199 268 -309 454 -105z" />
    <glyph glyph-name="period" unicode="." horiz-adv-x="78" 
d="M39 0c-16 0 -29 13 -29 29s13 29 29 29s29 -13 29 -29s-13 -29 -29 -29z" />
    <glyph glyph-name="comma" unicode="," horiz-adv-x="103" 
d="M45 -60c-14 -27 -47 -15 -31 14c14 33 30 67 47 101c11 20 40 7 30 -16c-16 -33 -32 -66 -46 -99z" />
    <glyph glyph-name="colon" unicode=":" horiz-adv-x="78" 
d="M39 350c-16 0 -29 13 -29 29s13 29 29 29s29 -13 29 -29s-13 -29 -29 -29zM39 140c-16 0 -29 13 -29 29s13 29 29 29s29 -13 29 -29s-13 -29 -29 -29z" />
    <glyph glyph-name="semicolon" unicode=";" horiz-adv-x="103" 
d="M59 350c-16 0 -29 13 -29 29s13 29 29 29s29 -13 29 -29s-13 -29 -29 -29zM45 80c-14 -27 -47 -15 -31 14c14 33 30 67 47 101c11 20 40 7 30 -16c-16 -33 -32 -66 -46 -99z" />
    <glyph glyph-name="ellipsis" unicode="&#x2026;" horiz-adv-x="230" 
d="M39 0c-16 0 -29 13 -29 29s13 29 29 29s29 -13 29 -29s-13 -29 -29 -29zM114 0c-16 0 -29 13 -29 29s13 29 29 29s29 -13 29 -29s-13 -29 -29 -29zM191 0c-16 0 -29 13 -29 29s13 29 29 29s29 -13 29 -29s-13 -29 -29 -29z" />
    <glyph glyph-name="exclam" unicode="!" horiz-adv-x="493" 
d="M107 57l338 791c10 24 50 17 34 -14l-338 -791c-9 -22 -46 -15 -34 14zM45 -180c-14 -27 -47 -15 -31 14c14 33 30 67 47 101c11 20 40 7 30 -16c-16 -33 -32 -66 -46 -99z" />
    <glyph glyph-name="exclamdown" unicode="&#xa1;" horiz-adv-x="493" 
d="M448 767c14 27 47 15 31 -14c-14 -33 -30 -67 -47 -101c-11 -20 -40 -7 -30 16c16 33 32 66 46 99zM386 530l-338 -791c-10 -24 -50 -17 -34 14l338 791c9 22 46 15 34 -14z" />
    <glyph glyph-name="question" unicode="?" horiz-adv-x="666" 
d="M141 43c-10 -23 -40 -8 -28 20c153 365 395 279 495 547c41 109 -27 238 -168 238c-162 0 -290 -134 -368 -368c-7 -24 -44 -20 -32 14c84 246 224 388 400 388c161 0 247 -148 205 -272c-100 -295 -355 -211 -504 -567zM45 -180c-14 -27 -47 -15 -31 14
c14 33 30 67 47 101c11 20 40 7 30 -16c-16 -33 -32 -66 -46 -99z" />
    <glyph glyph-name="questiondown" unicode="&#xbf;" horiz-adv-x="666" 
d="M621 783c14 27 47 15 31 -14c-14 -33 -30 -67 -47 -101c-11 -20 -40 -7 -30 16c16 33 32 66 46 99zM525 560c10 23 40 8 28 -20c-153 -365 -395 -279 -495 -547c-41 -109 27 -238 168 -238c162 0 290 134 368 368c7 24 44 20 32 -14c-84 -246 -224 -388 -400 -388
c-161 0 -247 148 -205 272c100 295 355 211 504 567z" />
    <glyph glyph-name="periodcentered" unicode="&#xb7;" horiz-adv-x="98" 
d="M49 279c-16 0 -29 13 -29 29s13 29 29 29s29 -13 29 -29s-13 -29 -29 -29z" />
    <glyph glyph-name="bullet" unicode="&#x2022;" horiz-adv-x="132" 
d="M66 252c-31 0 -56 25 -56 56s25 56 56 56s56 -25 56 -56s-25 -56 -56 -56z" />
    <glyph glyph-name="asterisk" unicode="*" horiz-adv-x="545" 
d="M329 764c-23 -22 -50 4 -24 25c36 33 71 62 99 83c26 18 46 -11 20 -28c-28 -20 -61 -48 -95 -80zM225 787c17 -17 -5 -44 -24 -24c-30 27 -59 50 -83 68c-26 17 -6 46 20 28c25 -18 55 -44 87 -72zM477 724c29 -6 20 -38 -6 -31c-92 16 -274 18 -399 5
c-27 -5 -29 28 -4 31c128 13 313 11 409 -5zM309 658c-23 22 5 44 23 24c41 -44 77 -87 98 -121c18 -26 -14 -41 -28 -18c-20 32 -54 73 -93 115zM201 671c18 21 46 -3 24 -23c-38 -40 -71 -81 -91 -112c-14 -23 -46 -8 -28 18c20 33 55 75 95 117z" />
    <glyph glyph-name="numbersign" unicode="#" horiz-adv-x="763" 
d="M738 509c23 -4 18 -38 -4 -34c-15 3 -61 5 -123 7l-126 -296c72 -2 127 -4 143 -7c23 -4 18 -38 -4 -34c-17 3 -77 6 -153 7l-94 -219c-9 -22 -46 -15 -34 14l88 206c-80 1 -172 2 -249 2l-95 -222c-9 -22 -46 -15 -34 14l89 207c-59 0 -103 -1 -119 -3
c-21 -2 -15 33 3 35c16 1 66 2 130 3l127 296c-73 -1 -131 -2 -150 -4c-21 -2 -15 33 3 35c19 2 82 2 161 3l94 219c10 24 50 17 34 -14l-88 -205c82 0 173 -1 249 -3l95 222c10 24 50 17 34 -14l-89 -209c56 -1 98 -3 112 -6zM445 187l127 295c-77 2 -169 3 -249 3
l-127 -296c78 0 170 -1 249 -2z" />
    <glyph glyph-name="slash" unicode="/" horiz-adv-x="466" 
d="M13 -117l405 941c10 24 50 17 34 -14l-405 -941c-10 -22 -47 -15 -34 14z" />
    <glyph glyph-name="backslash" unicode="\" horiz-adv-x="466" 
d="M48 824l405 -941c13 -29 -24 -36 -34 -14l-405 941c-16 31 24 38 34 14z" />
    <glyph glyph-name="parenleft" unicode="(" horiz-adv-x="530" 
d="M103 -100c26 -6 14 -38 -10 -32c-279 85 59 1003 427 974c29 -3 26 -39 -2 -34c-324 27 -642 -833 -415 -908z" />
    <glyph glyph-name="parenright" unicode=")" horiz-adv-x="530" 
d="M427 810c-26 6 -14 38 10 32c279 -85 -59 -1003 -427 -974c-29 3 -26 39 2 34c324 -27 642 833 415 908z" />
    <glyph glyph-name="braceleft" unicode="{" horiz-adv-x="435" 
d="M423 830c31 3 26 -36 4 -36c-59 -4 -98 -100 -143 -208c-42 -99 -87 -207 -158 -237c43 -54 -4 -161 -45 -253c-61 -136 -71 -185 -42 -204c30 -18 3 -47 -20 -28c-121 82 185 424 61 477c-23 4 -21 35 4 35c146 0 180 442 339 454z" />
    <glyph glyph-name="braceright" unicode="}" horiz-adv-x="435" 
d="M355 347c23 -4 21 -35 -4 -35c-146 0 -180 -442 -339 -454c-31 -3 -26 36 -4 36c59 4 98 100 143 208c42 99 87 207 158 237c-43 54 4 161 45 253c61 136 71 185 42 204c-30 18 -3 47 20 28c121 -82 -185 -424 -61 -477z" />
    <glyph glyph-name="bracketleft" unicode="[" horiz-adv-x="703" 
d="M373 779c-21 -2 -15 33 3 35c59 5 269 3 322 -7c23 -4 18 -38 -4 -34c-54 10 -260 13 -321 6zM377 709l-302 -695c-14 -31 -49 -18 -35 11l302 696c12 29 45 12 35 -12zM3 -91c-21 -2 -15 33 3 35c59 5 269 3 322 -7c23 -4 18 -38 -4 -34c-54 10 -260 13 -321 6z" />
    <glyph glyph-name="bracketright" unicode="]" horiz-adv-x="703" 
d="M700 810c21 2 15 -33 -3 -35c-59 -5 -269 -3 -322 7c-23 4 -18 38 4 34c54 -10 260 -13 321 -6zM326 10l302 695c14 31 49 18 35 -11l-302 -696c-12 -29 -45 -12 -35 12zM330 -60c21 2 15 -33 -3 -35c-59 -5 -269 -3 -322 7c-23 4 -18 38 4 34c54 -10 260 -13 321 -6z
" />
    <glyph glyph-name="hyphen" unicode="-" horiz-adv-x="355" 
d="M326 352c27 0 23 -34 0 -34c-117 1 -258 0 -296 -2c-29 -2 -24 33 2 35c36 3 176 3 294 1z" />
    <glyph glyph-name="endash" unicode="&#x2013;" horiz-adv-x="455" 
d="M426 352c27 0 23 -34 0 -34c-117 1 -358 0 -396 -2c-29 -2 -24 33 2 35c36 3 276 3 394 1z" />
    <glyph glyph-name="emdash" unicode="&#x2014;" horiz-adv-x="595" 
d="M566 352c27 0 23 -34 0 -34c-117 1 -498 0 -536 -2c-29 -2 -24 33 2 35c36 3 416 3 534 1z" />
    <glyph glyph-name="underscore" unicode="_" horiz-adv-x="355" 
d="M326 -108c27 0 23 -34 0 -34c-117 1 -258 0 -296 -2c-29 -2 -24 33 2 35c36 3 176 3 294 1z" />
    <glyph glyph-name="quotesinglbase" unicode="&#x201a;" horiz-adv-x="103" 
d="M45 -60c-14 -27 -47 -15 -31 14c14 33 30 67 47 101c11 20 40 7 30 -16c-16 -33 -32 -66 -46 -99z" />
    <glyph glyph-name="quotedblbase" unicode="&#x201e;" horiz-adv-x="181" 
d="M45 -60c-14 -27 -47 -15 -31 14c14 33 30 67 47 101c11 20 40 7 30 -16c-16 -33 -32 -66 -46 -99zM123 -60c-14 -27 -47 -15 -31 14c14 33 30 67 47 101c11 20 40 7 30 -16c-16 -33 -32 -66 -46 -99z" />
    <glyph glyph-name="quotedblleft" unicode="&#x201c;" horiz-adv-x="181" 
d="M45 653c-14 -27 -47 -15 -31 14c14 33 30 67 47 101c11 20 40 7 30 -16c-16 -33 -32 -66 -46 -99zM123 653c-14 -27 -47 -15 -31 14c14 33 30 67 47 101c11 20 40 7 30 -16c-16 -33 -32 -66 -46 -99z" />
    <glyph glyph-name="quotedblright" unicode="&#x201d;" horiz-adv-x="181" 
d="M45 653c-14 -27 -47 -15 -31 14c14 33 30 67 47 101c11 20 40 7 30 -16c-16 -33 -32 -66 -46 -99zM123 653c-14 -27 -47 -15 -31 14c14 33 30 67 47 101c11 20 40 7 30 -16c-16 -33 -32 -66 -46 -99z" />
    <glyph glyph-name="quoteleft" unicode="&#x2018;" horiz-adv-x="103" 
d="M45 653c-14 -27 -47 -15 -31 14c14 33 30 67 47 101c11 20 40 7 30 -16c-16 -33 -32 -66 -46 -99z" />
    <glyph glyph-name="quoteright" unicode="&#x2019;" horiz-adv-x="103" 
d="M45 653c-14 -27 -47 -15 -31 14c14 33 30 67 47 101c11 20 40 7 30 -16c-16 -33 -32 -66 -46 -99z" />
    <glyph glyph-name="guillemotleft" unicode="&#xab;" horiz-adv-x="575" 
d="M33 418l301 213c23 16 44 -14 20 -28l-310 -219l91 -286c11 -26 -25 -37 -33 -11l-89 282c-8 20 -2 33 20 49zM233 418l301 213c23 16 44 -14 20 -28l-310 -219l91 -286c11 -26 -25 -37 -33 -11l-89 282c-8 20 -2 33 20 49z" />
    <glyph glyph-name="guillemotright" unicode="&#xbb;" horiz-adv-x="575" 
d="M342 290l-301 -213c-23 -16 -44 14 -20 28l310 219l-91 286c-11 26 25 37 33 11l89 -282c8 -20 2 -33 -20 -49zM542 290l-301 -213c-23 -16 -44 14 -20 28l310 219l-91 286c-11 26 25 37 33 11l89 -282c8 -20 2 -33 -20 -49z" />
    <glyph glyph-name="guilsinglleft" unicode="&#x2039;" horiz-adv-x="375" 
d="M33 418l301 213c23 16 44 -14 20 -28l-310 -219l91 -286c11 -26 -25 -37 -33 -11l-89 282c-8 20 -2 33 20 49z" />
    <glyph glyph-name="guilsinglright" unicode="&#x203a;" horiz-adv-x="375" 
d="M342 290l-301 -213c-23 -16 -44 14 -20 28l310 219l-91 286c-11 26 25 37 33 11l89 -282c8 -20 2 -33 -20 -49z" />
    <glyph glyph-name="quotedbl" unicode="&#x22;" horiz-adv-x="181" 
d="M45 653c-14 -27 -47 -15 -31 14c14 33 30 67 47 101c11 20 40 7 30 -16c-16 -33 -32 -66 -46 -99zM123 653c-14 -27 -47 -15 -31 14c14 33 30 67 47 101c11 20 40 7 30 -16c-16 -33 -32 -66 -46 -99z" />
    <glyph glyph-name="quotesingle" unicode="'" horiz-adv-x="103" 
d="M45 653c-14 -27 -47 -15 -31 14c14 33 30 67 47 101c11 20 40 7 30 -16c-16 -33 -32 -66 -46 -99z" />
    <glyph glyph-name="cent" unicode="&#xa2;" horiz-adv-x="465" 
d="M451 810l-76 -178c-12 -28 -47 -14 -35 12l77 180c10 24 50 17 34 -14zM310 197c25 29 48 -7 25 -27c-48 -47 -111 -100 -176 -100c-244 0 -26 500 166 500c40 0 65 -21 77 -54c8 -21 -19 -39 -29 -15c-8 22 -23 35 -48 35c-149 0 -337 -432 -166 -432
c50 0 106 50 151 93zM12 -117l58 136c9 26 46 16 35 -12l-59 -138c-9 -22 -46 -15 -34 14z" />
    <glyph glyph-name="currency" unicode="&#xa4;" horiz-adv-x="714" 
d="M338 782l23 -158c2 -26 -32 -29 -35 -5l-23 157c-3 24 31 34 35 6zM562 603l109 138c16 21 45 -3 28 -24l-108 -138c-23 -26 -49 6 -29 24zM465 307c7 28 42 18 32 -11c-44 -107 -136 -216 -228 -216c-244 0 -26 500 166 500c129 0 103 -163 92 -196
c-7 -21 -41 -16 -33 7c8 22 28 155 -59 155c-149 0 -337 -432 -166 -432c79 0 158 95 196 193zM430 75l29 -197c4 -31 -32 -43 -37 -7l-28 197c-4 30 33 32 36 7zM16 -63l109 138c18 23 47 -2 29 -24l-108 -137c-15 -19 -49 -2 -30 23z" />
    <glyph glyph-name="dollar" unicode="$" horiz-adv-x="667" 
d="M555 894l-16 -44c-9 -31 -48 -19 -36 10l18 48c9 24 45 17 34 -14zM44 272c13 27 44 8 32 -14c-59 -128 14 -253 160 -253c148 0 263 99 263 217c0 164 -276 113 -276 328c0 128 117 238 243 238c138 0 215 -131 166 -288c-10 -30 -44 -18 -34 10
c41 135 -18 242 -132 242c-107 0 -207 -93 -207 -202c0 -183 276 -135 276 -328c0 -137 -131 -253 -299 -253c-170 0 -263 153 -192 303zM120 -138l22 58c9 30 46 15 35 -11l-23 -61c-8 -22 -45 -15 -34 14z" />
    <glyph glyph-name="Euro" unicode="&#x20ac;" horiz-adv-x="842" 
d="M671 865c227 0 212 -319 -35 -434c-31 -18 -50 15 -16 30c215 98 240 370 51 370c-137 0 -256 -92 -339 -218c111 1 247 0 314 -1c27 0 23 -34 0 -34c-71 1 -221 0 -336 0c-61 -106 -98 -231 -101 -345c110 1 241 0 307 -1c27 0 23 -34 0 -34c-65 1 -196 0 -307 0
c7 -164 89 -295 278 -295c27 0 24 -34 0 -34c-218 0 -314 147 -320 329c-69 -1 -123 -1 -137 -2c-29 -2 -24 33 2 35c13 1 66 2 134 2c3 114 38 237 98 345c-53 -1 -92 -1 -104 -2c-29 -2 -24 33 2 35c12 1 60 2 123 2c90 144 226 252 386 252z" />
    <glyph glyph-name="sterling" unicode="&#xa3;" horiz-adv-x="761" 
d="M47 -32c-11 -30 -47 -20 -34 12c81 211 390 860 718 860c24 0 28 -37 0 -37c-306 0 -603 -626 -684 -835zM103 316c27 2 24 -35 0 -35c-20 -1 -35 -1 -45 -2c-29 -2 -24 33 2 35c9 1 24 1 43 2zM266 281c-26 0 -27 35 1 36c118 -1 238 -4 270 -10c23 -4 19 -38 -3 -34
c-32 6 -151 8 -268 8zM78 -121c-29 -2 -24 33 2 35c59 5 404 3 457 -7c23 -4 19 -38 -3 -34c-53 10 -394 10 -456 6z" />
    <glyph glyph-name="yen" unicode="&#xa5;" horiz-adv-x="780" 
d="M418 354c16 -25 -16 -43 -33 -18c-89 138 -157 417 -171 515c-4 32 36 36 39 4c14 -96 80 -367 165 -501zM13 47c-14 27 20 43 30 17c38 -85 100 -161 158 -161c120 0 505 874 533 940c11 23 46 16 34 -14c-28 -66 -419 -960 -567 -960c-73 0 -146 83 -188 178zM369 233
c23 0 20 -35 -1 -35c-63 0 -96 -1 -115 -2c-29 -2 -27 33 -1 35c18 2 52 2 117 2zM518 197c-24 0 -28 35 0 35h68c27 0 23 -34 0 -34c-27 0 -37 -1 -68 -1zM272 73c29 0 22 -35 0 -35c-61 0 -82 -1 -100 -2c-29 -2 -26 33 0 35c17 1 38 2 100 2zM425 38c-23 0 -17 35 0 35
c32 0 53 -1 81 -1c27 0 23 -34 0 -34h-81z" />
    <glyph glyph-name="plus" unicode="+" horiz-adv-x="405" 
d="M256 411c-12 -30 -51 -20 -35 14c16 37 33 74 49 110c12 31 47 13 35 -15zM376 352c27 0 23 -34 0 -34c-117 1 -308 0 -346 -2c-29 -2 -24 33 2 35c36 3 226 3 344 1zM161 270c11 28 44 13 34 -15c-19 -46 -38 -92 -54 -134c-12 -30 -51 -30 -35 11c17 44 35 90 55 138z
" />
    <glyph glyph-name="minus" unicode="&#x2212;" horiz-adv-x="405" 
d="M376 352c27 0 23 -34 0 -34c-117 1 -308 0 -346 -2c-29 -2 -24 33 2 35c36 3 226 3 344 1z" />
    <glyph glyph-name="multiply" unicode="&#xd7;" horiz-adv-x="387" 
d="M266 118c10 -37 -29 -54 -35 -9c-27 126 -52 288 -76 413c-7 30 35 32 35 7c7 -36 14 -91 22 -135c19 -108 37 -200 54 -276zM278 393c-21 -25 -43 5 -25 23c37 44 58 67 88 104c23 31 49 -1 28 -20c-32 -37 -53 -62 -91 -107zM136 278c15 22 44 -1 24 -23l-119 -136
c-23 -23 -41 1 -24 22z" />
    <glyph glyph-name="equal" unicode="=" horiz-adv-x="365" 
d="M336 412c27 0 23 -34 0 -34c-117 1 -218 0 -256 -2c-29 -2 -24 33 2 35c36 3 136 3 254 1zM286 282c27 0 23 -34 0 -34c-117 1 -218 0 -256 -2c-29 -2 -24 33 2 35c36 3 136 3 254 1z" />
    <glyph glyph-name="greater" unicode="&#x3e;" horiz-adv-x="375" 
d="M342 290l-301 -213c-23 -16 -44 14 -20 28l310 219l-91 286c-11 26 25 37 33 11l89 -282c8 -20 2 -33 -20 -49z" />
    <glyph glyph-name="less" unicode="&#x3c;" horiz-adv-x="375" 
d="M33 418l301 213c23 16 44 -14 20 -28l-310 -219l91 -286c11 -26 -25 -37 -33 -11l-89 282c-8 20 -2 33 20 49z" />
    <glyph glyph-name="asciitilde" unicode="~" horiz-adv-x="529" 
d="M487 282c15 23 41 -7 28 -28c-29 -46 -136 -114 -260 2c-114 108 -181 19 -211 -40c-13 -21 -44 0 -30 26c64 125 164 144 265 48c104 -98 183 -48 208 -8z" />
    <glyph glyph-name="asciicircum" unicode="^" horiz-adv-x="210" 
d="M194 675c18 -26 -11 -44 -26 -19c-14 25 -35 61 -52 90c-23 -29 -52 -65 -71 -90c-21 -25 -50 -7 -26 19c23 30 59 76 84 107c5 5 11 7 16 7c4 0 9 -2 13 -7c19 -31 45 -77 62 -107z" />
    <glyph glyph-name="percent" unicode="%" horiz-adv-x="715" 
d="M16 -38l650 793c16 20 55 -1 31 -26l-649 -793c-15 -18 -52 2 -32 26zM309 527c7 29 38 16 32 -8c-4 -16 -64 -144 -151 -144c-161 0 -42 331 109 331c50 0 79 -45 66 -120c-6 -30 -42 -21 -34 6c10 52 -7 80 -32 80c-113 0 -211 -263 -109 -263c63 0 115 104 119 118z
M392 154c-7 -29 -38 -16 -32 8c4 16 64 144 151 144c161 0 42 -331 -109 -331c-50 0 -79 45 -66 120c6 30 42 21 34 -6c-10 -52 7 -80 32 -80c113 0 211 263 109 263c-63 0 -115 -104 -119 -118z" />
    <glyph glyph-name="at" unicode="@" horiz-adv-x="506" 
d="M322 532c291 0 158 -455 30 -455c-44 0 -56 43 -47 109c-33 -49 -73 -91 -116 -91c-150 0 -28 352 112 352c28 0 52 -17 62 -43c5 -17 -20 -37 -31 -12c-5 14 -17 23 -31 23c-101 0 -200 -288 -112 -288c65 0 131 143 154 200c2 7 5 13 7 20c6 20 39 15 31 -9
c0 -1 -1 -2 -1 -3h1c-43 -114 -56 -226 -26 -226c83 0 212 387 -34 387c-111 0 -232 -108 -267 -238c-34 -129 26 -231 134 -231c36 0 73 12 107 32c24 18 41 -17 18 -32c-40 -23 -83 -36 -126 -36c-132 0 -206 125 -167 275c39 147 173 266 302 266z" />
    <glyph glyph-name="ampersand" unicode="&#x26;" horiz-adv-x="915" 
d="M630 -228c-12 -39 -49 -32 -36 0c41 113 145 499 -130 686c-239 162 -107 416 220 416c29 0 24 -34 0 -34c-285 0 -407 -214 -202 -354c286 -195 188 -591 148 -714zM596 471c-33 -16 -55 19 -25 29c155 49 259 85 281 172c27 110 -58 162 -90 162c-27 0 -30 34 0 34
c40 0 157 -68 122 -204c-25 -101 -134 -143 -288 -193zM395 442c25 7 36 -21 16 -31c-202 -66 -371 -140 -367 -322c7 -286 427 -268 530 44c7 20 42 18 32 -12c-127 -361 -590 -351 -596 -32c-4 201 179 285 385 353zM701 328c-24 -13 -40 22 -13 31c67 21 135 34 198 35
c26 0 25 -34 0 -34c-59 -1 -122 -13 -185 -32zM518 297c23 11 33 -21 13 -31c-101 -44 -189 -100 -234 -145c-17 -19 -48 0 -24 24c47 47 139 106 245 152z" />
    <glyph glyph-name="copyright" unicode="&#xa9;" horiz-adv-x="530" 
d="M484 292c3 37 41 35 36 0c-2 -11 -4 -22 -7 -34c-40 -156 -182 -281 -317 -281c-139 0 -217 131 -175 289c41 155 182 280 317 280c97 0 159 -54 177 -145c7 -34 -33 -48 -36 -12c-14 77 -63 119 -142 119c-117 0 -244 -113 -281 -250c-35 -136 28 -243 141 -243
c117 0 244 113 281 251zM309 193c17 23 43 -2 27 -25c-12 -18 -76 -70 -127 -69c-152 3 -18 332 115 330c26 -1 50 -20 58 -47c9 -24 -26 -41 -32 -15c-4 14 -15 23 -27 23c-91 2 -200 -251 -113 -252c38 0 89 41 99 55z" />
    <glyph glyph-name="registered" unicode="&#xae;" horiz-adv-x="530" 
d="M484 292c3 37 41 35 36 0c-2 -11 -4 -22 -7 -34c-40 -156 -182 -281 -317 -281c-139 0 -217 131 -175 289c41 155 182 280 317 280c97 0 159 -54 177 -145c7 -34 -33 -48 -36 -12c-14 77 -63 119 -142 119c-117 0 -244 -113 -281 -250c-35 -136 28 -243 141 -243
c117 0 244 113 281 251zM305 457c186 -10 149 -257 -51 -255c-4 -35 19 -79 47 -89c26 -7 18 -36 -9 -31c-47 15 -79 82 -68 134c-2 9 4 19 20 18c170 -9 203 184 59 191c-21 1 -19 33 2 32zM108 128l123 297c16 32 45 12 32 -14l-123 -297c-9 -22 -48 -17 -32 14z" />
    <glyph glyph-name="trademark" unicode="&#x2122;" horiz-adv-x="723" 
d="M535 789c-417 96 -567 -221 -449 -244c27 -5 20 -32 -5 -27c-155 33 -22 395 462 302c22 -4 18 -36 -8 -31zM702 819c-66 -173 -121 -393 -108 -415c10 -15 -8 -35 -21 -18c-20 32 15 188 71 354c-66 -95 -109 -170 -168 -280c-6 -10 -18 -9 -24 -3c-1 2 -3 5 -4 8
c-10 26 -18 146 -10 232c-35 -70 -92 -215 -159 -245c-25 -12 -36 11 -12 22c74 35 138 264 185 286c12 4 22 -5 20 -14c-14 -54 -12 -185 -4 -243c65 121 115 203 208 329c13 20 33 4 26 -13zM135 366l161 375c10 29 39 13 29 -10l-161 -375c-11 -22 -41 -19 -29 10z" />
    <glyph glyph-name="degree" unicode="&#xb0;" horiz-adv-x="275" 
d="M206 677c7 29 38 16 32 -8c-4 -16 -64 -144 -151 -144c-161 0 -42 331 109 331c50 0 79 -45 66 -120c-6 -30 -42 -21 -34 6c10 52 -7 80 -32 80c-113 0 -211 -263 -109 -263c63 0 115 104 119 118z" />
    <glyph glyph-name="bar" unicode="|" horiz-adv-x="250" 
d="M50 -161l113 1018c2 26 42 31 36 -3l-112 -1018c-3 -24 -41 -29 -37 3z" />
    <glyph glyph-name="dagger" unicode="&#x2020;" horiz-adv-x="405" 
d="M256 411c-12 -30 -51 -20 -35 14c16 37 33 74 49 110c12 31 47 13 35 -15zM376 352c27 0 23 -34 0 -34c-117 1 -308 0 -346 -2c-29 -2 -24 33 2 35c36 3 226 3 344 1zM161 270c11 28 44 13 34 -15c-19 -46 -90 -233 -106 -275c-12 -30 -51 -30 -35 11
c17 44 87 231 107 279z" />
    <glyph glyph-name="dieresis" unicode="&#xa8;" horiz-adv-x="124" 
d="M32 730c-12 0 -22 10 -22 22s10 22 22 22s22 -10 22 -22s-10 -22 -22 -22zM92 730c-12 0 -22 10 -22 22s10 22 22 22s22 -10 22 -22s-10 -22 -22 -22z" />
    <glyph glyph-name="dotaccent" unicode="&#x2d9;" horiz-adv-x="64" 
d="M32 730c-12 0 -22 10 -22 22s10 22 22 22s22 -10 22 -22s-10 -22 -22 -22z" />
    <glyph glyph-name="grave" unicode="`" horiz-adv-x="121" 
d="M103 763c20 -18 -4 -43 -22 -27c-37 32 -51 44 -62 53c-23 18 3 42 24 26c10 -8 23 -18 60 -52z" />
    <glyph glyph-name="acute" unicode="&#xb4;" horiz-adv-x="121" 
d="M18 763c37 34 50 44 60 52c21 16 47 -8 24 -26c-11 -9 -25 -21 -62 -53c-18 -16 -42 9 -22 27z" />
    <glyph glyph-name="hungarumlaut" unicode="&#x2dd;" horiz-adv-x="211" 
d="M18 763c37 34 50 44 60 52c21 16 47 -8 24 -26c-11 -9 -25 -21 -62 -53c-18 -16 -42 9 -22 27zM108 763c37 34 50 44 60 52c21 16 47 -8 24 -26c-11 -9 -25 -21 -62 -53c-18 -16 -42 9 -22 27z" />
    <glyph glyph-name="circumflex" unicode="&#x2c6;" horiz-adv-x="184" 
d="M166 763c20 -18 -4 -43 -22 -27l-52 45c-10 -9 -25 -22 -52 -45c-18 -16 -42 9 -22 27c36 33 49 43 59 51c3 4 9 6 15 6s12 -2 15 -6c10 -8 23 -18 59 -51z" />
    <glyph glyph-name="caron" unicode="&#x2c7;" horiz-adv-x="184" 
d="M144 815c18 16 42 -9 22 -27c-36 -33 -49 -43 -59 -51c-3 -4 -9 -6 -15 -6s-12 2 -15 6c-10 8 -23 18 -59 51c-20 18 4 43 22 27l52 -45c10 9 25 22 52 45z" />
    <glyph glyph-name="breve" unicode="&#x2d8;" horiz-adv-x="169" 
d="M125 806c0 24 34 24 34 0c0 -95 -149 -94 -149 0c0 24 34 24 34 0c0 -55 81 -56 81 0z" />
    <glyph glyph-name="ring" unicode="&#x2da;" horiz-adv-x="154" 
d="M115 779c0 16 28 17 29 0c0 -33 -29 -46 -65 -46c-38 0 -69 24 -69 56s31 56 69 56c22 0 42 -9 54 -22c11 -15 -11 -34 -23 -18c-6 6 -18 10 -31 10c-23 0 -40 -12 -40 -26s17 -26 40 -26c21 0 33 4 36 16z" />
    <glyph glyph-name="tilde" unicode="&#x2dc;" horiz-adv-x="167" 
d="M130 783c21 17 38 -12 18 -26c-49 -42 -80 21 -111 -4c-22 -17 -36 10 -20 24c50 43 82 -19 113 6z" />
    <glyph glyph-name="macron" unicode="&#xaf;" horiz-adv-x="140" 
d="M110 765c27 0 25 -35 1 -34h-80c-29 0 -27 34 -1 34h80z" />
    <glyph glyph-name="cedilla" unicode="&#xb8;" horiz-adv-x="220" 
d="M181 62l-20 -53c82 -20 56 -146 -43 -146c-53 0 -98 35 -108 85c-3 22 28 31 34 6c6 -33 37 -57 74 -57c66 0 80 80 20 81c-11 -2 -22 8 -15 27l25 67c8 29 43 18 33 -10z" />
    <glyph glyph-name="ogonek" unicode="&#x2db;" horiz-adv-x="216" 
d="M172 -51c-1 26 33 27 34 0c0 -119 -196 -116 -196 -5c0 54 34 87 143 143c25 13 40 -19 16 -30c-99 -51 -125 -76 -125 -113c0 -66 128 -70 128 5z" />
    <glyph glyph-name="newGlyph" horiz-adv-x="600" 
 />
    </font>
</defs>
</svg>
